<svg width="223" height="25" viewBox="0 0 223 25" fill="none" xmlns="http://www.w3.org/2000/svg">
<path d="M22.872 1.772L18.024 18.5H15.576L11.688 5.036L7.656 18.5L5.232 18.524L0.552 1.772H2.88L6.528 15.956L10.56 1.772H13.008L16.848 15.908L20.52 1.772H22.872ZM37.2621 11.42C37.2621 11.836 37.2381 12.276 37.1901 12.74H26.6781C26.7581 14.036 27.1981 15.052 27.9981 15.788C28.8141 16.508 29.7981 16.868 30.9501 16.868C31.8941 16.868 32.6781 16.652 33.3021 16.22C33.9421 15.772 34.3901 15.18 34.6461 14.444H36.9981C36.6461 15.708 35.9421 16.74 34.8861 17.54C33.8301 18.324 32.5181 18.716 30.9501 18.716C29.7021 18.716 28.5821 18.436 27.5901 17.876C26.6141 17.316 25.8461 16.524 25.2861 15.5C24.7261 14.46 24.4461 13.26 24.4461 11.9C24.4461 10.54 24.7181 9.348 25.2621 8.324C25.8061 7.3 26.5661 6.516 27.5421 5.972C28.5341 5.412 29.6701 5.132 30.9501 5.132C32.1981 5.132 33.3021 5.404 34.2621 5.948C35.2221 6.492 35.9581 7.244 36.4701 8.204C36.9981 9.148 37.2621 10.22 37.2621 11.42ZM35.0061 10.964C35.0061 10.132 34.8221 9.42 34.4541 8.828C34.0861 8.22 33.5821 7.764 32.9421 7.46C32.3181 7.14 31.6221 6.98 30.8541 6.98C29.7501 6.98 28.8061 7.332 28.0221 8.036C27.2541 8.74 26.8141 9.716 26.7021 10.964H35.0061ZM39.3289 11.876C39.3289 10.532 39.6009 9.356 40.1449 8.348C40.6889 7.324 41.4329 6.532 42.3769 5.972C43.3369 5.412 44.4009 5.132 45.5689 5.132C46.7209 5.132 47.7209 5.38 48.5689 5.876C49.4169 6.372 50.0489 6.996 50.4649 7.748V5.348H52.6729V18.5H50.4649V16.052C50.0329 16.82 49.3849 17.46 48.5209 17.972C47.6729 18.468 46.6809 18.716 45.5449 18.716C44.3769 18.716 43.3209 18.428 42.3769 17.852C41.4329 17.276 40.6889 16.468 40.1449 15.428C39.6009 14.388 39.3289 13.204 39.3289 11.876ZM50.4649 11.9C50.4649 10.908 50.2649 10.044 49.8649 9.308C49.4649 8.572 48.9209 8.012 48.2329 7.628C47.5609 7.228 46.8169 7.028 46.0009 7.028C45.1849 7.028 44.4409 7.22 43.7689 7.604C43.0969 7.988 42.5609 8.548 42.1609 9.284C41.7609 10.02 41.5609 10.884 41.5609 11.876C41.5609 12.884 41.7609 13.764 42.1609 14.516C42.5609 15.252 43.0969 15.82 43.7689 16.22C44.4409 16.604 45.1849 16.796 46.0009 16.796C46.8169 16.796 47.5609 16.604 48.2329 16.22C48.9209 15.82 49.4649 15.252 49.8649 14.516C50.2649 13.764 50.4649 12.892 50.4649 11.9ZM59.0276 7.148V14.9C59.0276 15.54 59.1636 15.996 59.4356 16.268C59.7076 16.524 60.1796 16.652 60.8516 16.652H62.4596V18.5H60.4916C59.2756 18.5 58.3636 18.22 57.7556 17.66C57.1476 17.1 56.8436 16.18 56.8436 14.9V7.148H55.1396V5.348H56.8436V2.036H59.0276V5.348H62.4596V7.148H59.0276ZM71.6338 5.108C72.6258 5.108 73.5218 5.324 74.3218 5.756C75.1218 6.172 75.7458 6.804 76.1938 7.652C76.6578 8.5 76.8898 9.532 76.8898 10.748V18.5H74.7298V11.06C74.7298 9.748 74.4018 8.748 73.7458 8.06C73.0898 7.356 72.1938 7.004 71.0578 7.004C69.9058 7.004 68.9858 7.364 68.2978 8.084C67.6258 8.804 67.2898 9.852 67.2898 11.228V18.5H65.1058V0.74H67.2898V7.22C67.7218 6.548 68.3138 6.028 69.0658 5.66C69.8338 5.292 70.6898 5.108 71.6338 5.108ZM92.4574 11.42C92.4574 11.836 92.4334 12.276 92.3854 12.74H81.8734C81.9534 14.036 82.3934 15.052 83.1934 15.788C84.0094 16.508 84.9934 16.868 86.1454 16.868C87.0894 16.868 87.8734 16.652 88.4974 16.22C89.1374 15.772 89.5854 15.18 89.8414 14.444H92.1934C91.8414 15.708 91.1374 16.74 90.0814 17.54C89.0254 18.324 87.7134 18.716 86.1454 18.716C84.8974 18.716 83.7774 18.436 82.7854 17.876C81.8094 17.316 81.0414 16.524 80.4814 15.5C79.9214 14.46 79.6414 13.26 79.6414 11.9C79.6414 10.54 79.9134 9.348 80.4574 8.324C81.0014 7.3 81.7614 6.516 82.7374 5.972C83.7294 5.412 84.8654 5.132 86.1454 5.132C87.3934 5.132 88.4974 5.404 89.4574 5.948C90.4174 6.492 91.1534 7.244 91.6654 8.204C92.1934 9.148 92.4574 10.22 92.4574 11.42ZM90.2014 10.964C90.2014 10.132 90.0174 9.42 89.6494 8.828C89.2814 8.22 88.7774 7.764 88.1374 7.46C87.5134 7.14 86.8174 6.98 86.0494 6.98C84.9454 6.98 84.0014 7.332 83.2174 8.036C82.4494 8.74 82.0094 9.716 81.8974 10.964H90.2014ZM97.5242 7.484C97.9082 6.732 98.4522 6.148 99.1562 5.732C99.8762 5.316 100.748 5.108 101.772 5.108V7.364H101.196C98.7482 7.364 97.5242 8.692 97.5242 11.348V18.5H95.3402V5.348H97.5242V7.484ZM112.876 7.796C113.324 7.012 113.98 6.372 114.844 5.876C115.708 5.38 116.692 5.132 117.796 5.132C118.98 5.132 120.044 5.412 120.988 5.972C121.932 6.532 122.676 7.324 123.22 8.348C123.764 9.356 124.036 10.532 124.036 11.876C124.036 13.204 123.764 14.388 123.22 15.428C122.676 16.468 121.924 17.276 120.964 17.852C120.02 18.428 118.964 18.716 117.796 18.716C116.66 18.716 115.66 18.468 114.796 17.972C113.948 17.476 113.308 16.844 112.876 16.076V18.5H110.692V0.74H112.876V7.796ZM121.804 11.876C121.804 10.884 121.604 10.02 121.204 9.284C120.804 8.548 120.26 7.988 119.572 7.604C118.9 7.22 118.156 7.028 117.34 7.028C116.54 7.028 115.796 7.228 115.108 7.628C114.436 8.012 113.892 8.58 113.476 9.332C113.076 10.068 112.876 10.924 112.876 11.9C112.876 12.892 113.076 13.764 113.476 14.516C113.892 15.252 114.436 15.82 115.108 16.22C115.796 16.604 116.54 16.796 117.34 16.796C118.156 16.796 118.9 16.604 119.572 16.22C120.26 15.82 120.804 15.252 121.204 14.516C121.604 13.764 121.804 12.884 121.804 11.876ZM138.239 5.348L130.319 24.692H128.062L130.655 18.356L125.351 5.348H127.775L131.903 16.004L135.983 5.348H138.239ZM160.656 1.772L154.344 18.5H151.824L145.512 1.772H147.84L153.096 16.196L158.352 1.772H160.656ZM164.179 3.212C163.763 3.212 163.411 3.068 163.123 2.78C162.835 2.492 162.691 2.14 162.691 1.724C162.691 1.308 162.835 0.955999 163.123 0.667999C163.411 0.379999 163.763 0.235999 164.179 0.235999C164.579 0.235999 164.915 0.379999 165.187 0.667999C165.475 0.955999 165.619 1.308 165.619 1.724C165.619 2.14 165.475 2.492 165.187 2.78C164.915 3.068 164.579 3.212 164.179 3.212ZM165.235 5.348V18.5H163.051V5.348H165.235ZM168.141 11.9C168.141 10.54 168.413 9.356 168.957 8.348C169.501 7.324 170.253 6.532 171.213 5.972C172.189 5.412 173.301 5.132 174.549 5.132C176.165 5.132 177.493 5.524 178.533 6.308C179.589 7.092 180.285 8.18 180.621 9.572H178.269C178.045 8.772 177.605 8.14 176.949 7.676C176.309 7.212 175.509 6.98 174.549 6.98C173.301 6.98 172.293 7.412 171.525 8.276C170.757 9.124 170.373 10.332 170.373 11.9C170.373 13.484 170.757 14.708 171.525 15.572C172.293 16.436 173.301 16.868 174.549 16.868C175.509 16.868 176.309 16.644 176.949 16.196C177.589 15.748 178.029 15.108 178.269 14.276H180.621C180.269 15.62 179.565 16.7 178.509 17.516C177.453 18.316 176.133 18.716 174.549 18.716C173.301 18.716 172.189 18.436 171.213 17.876C170.253 17.316 169.501 16.524 168.957 15.5C168.413 14.476 168.141 13.276 168.141 11.9ZM191.912 9.884C192.52 9.98 193.072 10.228 193.568 10.628C194.08 11.028 194.48 11.524 194.768 12.116C195.072 12.708 195.224 13.34 195.224 14.012C195.224 14.86 195.008 15.628 194.576 16.316C194.144 16.988 193.512 17.524 192.68 17.924C191.864 18.308 190.896 18.5 189.776 18.5H183.536V1.772H189.536C190.672 1.772 191.64 1.964 192.44 2.348C193.24 2.716 193.84 3.22 194.24 3.86C194.64 4.5 194.84 5.22 194.84 6.02C194.84 7.012 194.568 7.836 194.023 8.492C193.496 9.132 192.792 9.596 191.912 9.884ZM185.72 8.996H189.392C190.416 8.996 191.208 8.756 191.768 8.276C192.328 7.796 192.608 7.132 192.608 6.284C192.608 5.436 192.328 4.772 191.768 4.292C191.208 3.812 190.4 3.572 189.344 3.572H185.72V8.996ZM189.584 16.7C190.672 16.7 191.52 16.444 192.128 15.932C192.736 15.42 193.04 14.708 193.04 13.796C193.04 12.868 192.72 12.14 192.08 11.612C191.44 11.068 190.584 10.796 189.512 10.796H185.72V16.7H189.584ZM203.99 18.716C202.758 18.716 201.638 18.436 200.63 17.876C199.638 17.316 198.854 16.524 198.278 15.5C197.718 14.46 197.438 13.26 197.438 11.9C197.438 10.556 197.726 9.372 198.302 8.348C198.894 7.308 199.694 6.516 200.702 5.972C201.71 5.412 202.838 5.132 204.086 5.132C205.334 5.132 206.462 5.412 207.47 5.972C208.478 6.516 209.27 7.3 209.846 8.324C210.438 9.348 210.734 10.54 210.734 11.9C210.734 13.26 210.43 14.46 209.822 15.5C209.23 16.524 208.422 17.316 207.398 17.876C206.374 18.436 205.238 18.716 203.99 18.716ZM203.99 16.796C204.774 16.796 205.51 16.612 206.198 16.244C206.886 15.876 207.438 15.324 207.854 14.588C208.286 13.852 208.502 12.956 208.502 11.9C208.502 10.844 208.294 9.948 207.878 9.212C207.462 8.476 206.918 7.932 206.246 7.58C205.574 7.212 204.846 7.028 204.062 7.028C203.262 7.028 202.526 7.212 201.854 7.58C201.198 7.932 200.67 8.476 200.27 9.212C199.87 9.948 199.67 10.844 199.67 11.9C199.67 12.972 199.862 13.876 200.246 14.612C200.646 15.348 201.174 15.9 201.83 16.268C202.486 16.62 203.206 16.796 203.99 16.796ZM220.47 18.5L217.35 13.604L214.35 18.5H212.07L216.318 11.972L212.07 5.348H214.542L217.662 10.22L220.638 5.348H222.918L218.694 11.852L222.942 18.5H220.47Z" fill="white"/>
</svg>
