<svg width="80" height="20" viewBox="0 0 80 20" fill="none" xmlns="http://www.w3.org/2000/svg">
<path d="M13.52 7.12C13.056 6.144 12.384 5.392 11.504 4.864C10.624 4.32 9.6 4.048 8.432 4.048C7.264 4.048 6.208 4.32 5.264 4.864C4.336 5.392 3.6 6.16 3.056 7.168C2.528 8.16 2.264 9.312 2.264 10.624C2.264 11.936 2.528 13.088 3.056 14.08C3.6 15.072 4.336 15.84 5.264 16.384C6.208 16.912 7.264 17.176 8.432 17.176C10.064 17.176 11.408 16.688 12.464 15.712C13.52 14.736 14.136 13.416 14.312 11.752H7.64V9.976H16.64V11.656C16.512 13.032 16.08 14.296 15.344 15.448C14.608 16.584 13.64 17.488 12.44 18.16C11.24 18.816 9.904 19.144 8.432 19.144C6.88 19.144 5.464 18.784 4.184 18.064C2.904 17.328 1.888 16.312 1.136 15.016C0.4 13.72 0.032 12.256 0.032 10.624C0.032 8.992 0.4 7.528 1.136 6.232C1.888 4.92 2.904 3.904 4.184 3.184C5.464 2.448 6.88 2.08 8.432 2.08C10.208 2.08 11.776 2.52 13.136 3.4C14.512 4.28 15.512 5.52 16.136 7.12H13.52ZM20.6557 3.712C20.2397 3.712 19.8877 3.568 19.5997 3.28C19.3117 2.992 19.1677 2.64 19.1677 2.224C19.1677 1.808 19.3117 1.456 19.5997 1.168C19.8877 0.879999 20.2397 0.735999 20.6557 0.735999C21.0557 0.735999 21.3917 0.879999 21.6637 1.168C21.9517 1.456 22.0957 1.808 22.0957 2.224C22.0957 2.64 21.9517 2.992 21.6637 3.28C21.3917 3.568 21.0557 3.712 20.6557 3.712ZM21.7117 5.848V19H19.5277V5.848H21.7117ZM28.0979 7.648V15.4C28.0979 16.04 28.2339 16.496 28.5059 16.768C28.7779 17.024 29.2499 17.152 29.9219 17.152H31.5299V19H29.5619C28.3459 19 27.4339 18.72 26.8259 18.16C26.2179 17.6 25.9139 16.68 25.9139 15.4V7.648H24.2099V5.848H25.9139V2.536H28.0979V5.848H31.5299V7.648H28.0979ZM47.0641 2.272V19H44.8801V11.416H36.3601V19H34.1761V2.272H36.3601V9.616H44.8801V2.272H47.0641ZM62.4573 5.848V19H60.2733V17.056C59.8573 17.728 59.2733 18.256 58.5213 18.64C57.7853 19.008 56.9693 19.192 56.0733 19.192C55.0493 19.192 54.1293 18.984 53.3133 18.568C52.4973 18.136 51.8493 17.496 51.3693 16.648C50.9053 15.8 50.6733 14.768 50.6733 13.552V5.848H52.8333V13.264C52.8333 14.56 53.1613 15.56 53.8173 16.264C54.4733 16.952 55.3693 17.296 56.5053 17.296C57.6733 17.296 58.5933 16.936 59.2653 16.216C59.9373 15.496 60.2733 14.448 60.2733 13.072V5.848H62.4573ZM68.3289 8.296C68.7769 7.512 69.4329 6.872 70.2969 6.376C71.1609 5.88 72.1449 5.632 73.2489 5.632C74.4329 5.632 75.4969 5.912 76.4409 6.472C77.3849 7.032 78.1289 7.824 78.6729 8.848C79.2169 9.856 79.4889 11.032 79.4889 12.376C79.4889 13.704 79.2169 14.888 78.6729 15.928C78.1289 16.968 77.3769 17.776 76.4169 18.352C75.4729 18.928 74.4169 19.216 73.2489 19.216C72.1129 19.216 71.1129 18.968 70.2489 18.472C69.4009 17.976 68.7609 17.344 68.3289 16.576V19H66.1449V1.24H68.3289V8.296ZM77.2569 12.376C77.2569 11.384 77.0569 10.52 76.6569 9.784C76.2569 9.048 75.7129 8.488 75.0249 8.104C74.3529 7.72 73.6089 7.528 72.7929 7.528C71.9929 7.528 71.2489 7.728 70.5609 8.128C69.8889 8.512 69.3449 9.08 68.9289 9.832C68.5289 10.568 68.3289 11.424 68.3289 12.4C68.3289 13.392 68.5289 14.264 68.9289 15.016C69.3449 15.752 69.8889 16.32 70.5609 16.72C71.2489 17.104 71.9929 17.296 72.7929 17.296C73.6089 17.296 74.3529 17.104 75.0249 16.72C75.7129 16.32 76.2569 15.752 76.6569 15.016C77.0569 14.264 77.2569 13.384 77.2569 12.376Z" fill="white"/>
</svg>
