<svg width="298" height="27" viewBox="0 0 298 27" fill="none" xmlns="http://www.w3.org/2000/svg">
<path d="M14.112 7.544V20H12.474V10.712L8.334 20H7.182L3.024 10.694V20H1.386V7.544H3.15L7.758 17.84L12.366 7.544H14.112ZM16.2779 15.032C16.2779 14.024 16.4819 13.142 16.8899 12.386C17.2979 11.618 17.8559 11.024 18.5639 10.604C19.2839 10.184 20.0819 9.974 20.9579 9.974C21.8219 9.974 22.5719 10.16 23.2079 10.532C23.8439 10.904 24.3179 11.372 24.6299 11.936V10.136H26.2859V20H24.6299V18.164C24.3059 18.74 23.8199 19.22 23.1719 19.604C22.5359 19.976 21.7919 20.162 20.9399 20.162C20.0639 20.162 19.2719 19.946 18.5639 19.514C17.8559 19.082 17.2979 18.476 16.8899 17.696C16.4819 16.916 16.2779 16.028 16.2779 15.032ZM24.6299 15.05C24.6299 14.306 24.4799 13.658 24.1799 13.106C23.8799 12.554 23.4719 12.134 22.9559 11.846C22.4519 11.546 21.8939 11.396 21.2819 11.396C20.6699 11.396 20.1119 11.54 19.6079 11.828C19.1039 12.116 18.7019 12.536 18.4019 13.088C18.1019 13.64 17.9519 14.288 17.9519 15.032C17.9519 15.788 18.1019 16.448 18.4019 17.012C18.7019 17.564 19.1039 17.99 19.6079 18.29C20.1119 18.578 20.6699 18.722 21.2819 18.722C21.8939 18.722 22.4519 18.578 22.9559 18.29C23.4719 17.99 23.8799 17.564 24.1799 17.012C24.4799 16.448 24.6299 15.794 24.6299 15.05ZM28.442 15.032C28.442 14.024 28.646 13.142 29.054 12.386C29.462 11.618 30.02 11.024 30.728 10.604C31.448 10.184 32.252 9.974 33.14 9.974C33.908 9.974 34.622 10.154 35.282 10.514C35.942 10.862 36.446 11.324 36.794 11.9V6.68H38.45V20H36.794V18.146C36.47 18.734 35.99 19.22 35.354 19.604C34.718 19.976 33.974 20.162 33.122 20.162C32.246 20.162 31.448 19.946 30.728 19.514C30.02 19.082 29.462 18.476 29.054 17.696C28.646 16.916 28.442 16.028 28.442 15.032ZM36.794 15.05C36.794 14.306 36.644 13.658 36.344 13.106C36.044 12.554 35.636 12.134 35.12 11.846C34.616 11.546 34.058 11.396 33.446 11.396C32.834 11.396 32.276 11.54 31.772 11.828C31.268 12.116 30.866 12.536 30.566 13.088C30.266 13.64 30.116 14.288 30.116 15.032C30.116 15.788 30.266 16.448 30.566 17.012C30.866 17.564 31.268 17.99 31.772 18.29C32.276 18.578 32.834 18.722 33.446 18.722C34.058 18.722 34.616 18.578 35.12 18.29C35.636 17.99 36.044 17.564 36.344 17.012C36.644 16.448 36.794 15.794 36.794 15.05ZM50.218 14.69C50.218 15.002 50.2 15.332 50.164 15.68H42.28C42.34 16.652 42.67 17.414 43.27 17.966C43.882 18.506 44.62 18.776 45.484 18.776C46.192 18.776 46.78 18.614 47.248 18.29C47.728 17.954 48.064 17.51 48.256 16.958H50.02C49.756 17.906 49.228 18.68 48.436 19.28C47.644 19.868 46.66 20.162 45.484 20.162C44.548 20.162 43.708 19.952 42.964 19.532C42.232 19.112 41.656 18.518 41.236 17.75C40.816 16.97 40.606 16.07 40.606 15.05C40.606 14.03 40.81 13.136 41.218 12.368C41.626 11.6 42.196 11.012 42.928 10.604C43.672 10.184 44.524 9.974 45.484 9.974C46.42 9.974 47.248 10.178 47.968 10.586C48.688 10.994 49.24 11.558 49.624 12.278C50.02 12.986 50.218 13.79 50.218 14.69ZM48.526 14.348C48.526 13.724 48.388 13.19 48.112 12.746C47.836 12.29 47.458 11.948 46.978 11.72C46.51 11.48 45.988 11.36 45.412 11.36C44.584 11.36 43.876 11.624 43.288 12.152C42.712 12.68 42.382 13.412 42.298 14.348H48.526ZM70.319 10.136L67.241 20H65.549L63.173 12.17L60.797 20H59.105L56.009 10.136H57.683L59.951 18.416L62.399 10.136H64.073L66.467 18.434L68.699 10.136H70.319ZM72.7906 8.534C72.4786 8.534 72.2146 8.426 71.9986 8.21C71.7826 7.994 71.6746 7.73 71.6746 7.418C71.6746 7.106 71.7826 6.842 71.9986 6.626C72.2146 6.41 72.4786 6.302 72.7906 6.302C73.0906 6.302 73.3426 6.41 73.5466 6.626C73.7626 6.842 73.8706 7.106 73.8706 7.418C73.8706 7.73 73.7626 7.994 73.5466 8.21C73.3426 8.426 73.0906 8.534 72.7906 8.534ZM73.5826 10.136V20H71.9446V10.136H73.5826ZM78.3723 11.486V17.3C78.3723 17.78 78.4743 18.122 78.6783 18.326C78.8823 18.518 79.2363 18.614 79.7403 18.614H80.9463V20H79.4703C78.5583 20 77.8743 19.79 77.4183 19.37C76.9623 18.95 76.7343 18.26 76.7343 17.3V11.486H75.4563V10.136H76.7343V7.652H78.3723V10.136H80.9463V11.486H78.3723ZM87.8269 9.956C88.5709 9.956 89.2429 10.118 89.8429 10.442C90.4429 10.754 90.9109 11.228 91.2469 11.864C91.5949 12.5 91.7689 13.274 91.7689 14.186V20H90.1489V14.42C90.1489 13.436 89.9029 12.686 89.4109 12.17C88.9189 11.642 88.2469 11.378 87.3949 11.378C86.5309 11.378 85.8409 11.648 85.3249 12.188C84.8209 12.728 84.5689 13.514 84.5689 14.546V20H82.9309V6.68H84.5689V11.54C84.8929 11.036 85.3369 10.646 85.9009 10.37C86.4769 10.094 87.1189 9.956 87.8269 9.956ZM134.473 11.972C134.809 11.384 135.301 10.904 135.949 10.532C136.597 10.16 137.335 9.974 138.163 9.974C139.051 9.974 139.849 10.184 140.557 10.604C141.265 11.024 141.823 11.618 142.231 12.386C142.639 13.142 142.843 14.024 142.843 15.032C142.843 16.028 142.639 16.916 142.231 17.696C141.823 18.476 141.259 19.082 140.539 19.514C139.831 19.946 139.039 20.162 138.163 20.162C137.311 20.162 136.561 19.976 135.913 19.604C135.277 19.232 134.797 18.758 134.473 18.182V20H132.835V6.68H134.473V11.972ZM141.169 15.032C141.169 14.288 141.019 13.64 140.719 13.088C140.419 12.536 140.011 12.116 139.495 11.828C138.991 11.54 138.433 11.396 137.821 11.396C137.221 11.396 136.663 11.546 136.147 11.846C135.643 12.134 135.235 12.56 134.923 13.124C134.623 13.676 134.473 14.318 134.473 15.05C134.473 15.794 134.623 16.448 134.923 17.012C135.235 17.564 135.643 17.99 136.147 18.29C136.663 18.578 137.221 18.722 137.821 18.722C138.433 18.722 138.991 18.578 139.495 18.29C140.011 17.99 140.419 17.564 140.719 17.012C141.019 16.448 141.169 15.788 141.169 15.032ZM153.495 10.136L147.555 24.644H145.863L147.807 19.892L143.829 10.136H145.647L148.743 18.128L151.803 10.136H153.495ZM170.309 7.454L165.575 20H163.685L158.951 7.454H160.697L164.639 18.272L168.581 7.454H170.309ZM172.951 8.534C172.639 8.534 172.375 8.426 172.159 8.21C171.943 7.994 171.835 7.73 171.835 7.418C171.835 7.106 171.943 6.842 172.159 6.626C172.375 6.41 172.639 6.302 172.951 6.302C173.251 6.302 173.503 6.41 173.707 6.626C173.923 6.842 174.031 7.106 174.031 7.418C174.031 7.73 173.923 7.994 173.707 8.21C173.503 8.426 173.251 8.534 172.951 8.534ZM173.743 10.136V20H172.105V10.136H173.743ZM175.922 15.05C175.922 14.03 176.126 13.142 176.534 12.386C176.942 11.618 177.506 11.024 178.226 10.604C178.958 10.184 179.792 9.974 180.728 9.974C181.94 9.974 182.936 10.268 183.716 10.856C184.508 11.444 185.03 12.26 185.282 13.304H183.518C183.35 12.704 183.02 12.23 182.528 11.882C182.048 11.534 181.448 11.36 180.728 11.36C179.792 11.36 179.036 11.684 178.46 12.332C177.884 12.968 177.596 13.874 177.596 15.05C177.596 16.238 177.884 17.156 178.46 17.804C179.036 18.452 179.792 18.776 180.728 18.776C181.448 18.776 182.048 18.608 182.528 18.272C183.008 17.936 183.338 17.456 183.518 16.832H185.282C185.018 17.84 184.49 18.65 183.698 19.262C182.906 19.862 181.916 20.162 180.728 20.162C179.792 20.162 178.958 19.952 178.226 19.532C177.506 19.112 176.942 18.518 176.534 17.75C176.126 16.982 175.922 16.082 175.922 15.05ZM189.466 11.486V17.3C189.466 17.78 189.568 18.122 189.772 18.326C189.976 18.518 190.33 18.614 190.834 18.614H192.04V20H190.564C189.652 20 188.968 19.79 188.512 19.37C188.056 18.95 187.828 18.26 187.828 17.3V11.486H186.55V10.136H187.828V7.652H189.466V10.136H192.04V11.486H189.466ZM198.327 20.162C197.403 20.162 196.563 19.952 195.807 19.532C195.063 19.112 194.475 18.518 194.043 17.75C193.623 16.97 193.413 16.07 193.413 15.05C193.413 14.042 193.629 13.154 194.061 12.386C194.505 11.606 195.105 11.012 195.861 10.604C196.617 10.184 197.463 9.974 198.399 9.974C199.335 9.974 200.181 10.184 200.937 10.604C201.693 11.012 202.287 11.6 202.719 12.368C203.163 13.136 203.385 14.03 203.385 15.05C203.385 16.07 203.157 16.97 202.701 17.75C202.257 18.518 201.651 19.112 200.883 19.532C200.115 19.952 199.263 20.162 198.327 20.162ZM198.327 18.722C198.915 18.722 199.467 18.584 199.983 18.308C200.499 18.032 200.913 17.618 201.225 17.066C201.549 16.514 201.711 15.842 201.711 15.05C201.711 14.258 201.555 13.586 201.243 13.034C200.931 12.482 200.523 12.074 200.019 11.81C199.515 11.534 198.969 11.396 198.381 11.396C197.781 11.396 197.229 11.534 196.725 11.81C196.233 12.074 195.837 12.482 195.537 13.034C195.237 13.586 195.087 14.258 195.087 15.05C195.087 15.854 195.231 16.532 195.519 17.084C195.819 17.636 196.215 18.05 196.707 18.326C197.199 18.59 197.739 18.722 198.327 18.722ZM207.176 11.738C207.464 11.174 207.872 10.736 208.4 10.424C208.94 10.112 209.594 9.956 210.362 9.956V11.648H209.93C208.094 11.648 207.176 12.644 207.176 14.636V20H205.538V10.136H207.176V11.738ZM224.468 17.21H218.996L217.988 20H216.26L220.796 7.526H222.686L227.204 20H225.476L224.468 17.21ZM224 15.878L221.732 9.542L219.464 15.878H224ZM230.819 6.68V20H229.181V6.68H230.819ZM237.283 18.488L240.343 10.136H242.089L238.219 20H236.311L232.441 10.136H234.205L237.283 18.488ZM243.088 15.032C243.088 14.024 243.292 13.142 243.7 12.386C244.108 11.618 244.666 11.024 245.374 10.604C246.094 10.184 246.892 9.974 247.768 9.974C248.632 9.974 249.382 10.16 250.018 10.532C250.654 10.904 251.128 11.372 251.44 11.936V10.136H253.096V20H251.44V18.164C251.116 18.74 250.63 19.22 249.982 19.604C249.346 19.976 248.602 20.162 247.75 20.162C246.874 20.162 246.082 19.946 245.374 19.514C244.666 19.082 244.108 18.476 243.7 17.696C243.292 16.916 243.088 16.028 243.088 15.032ZM251.44 15.05C251.44 14.306 251.29 13.658 250.99 13.106C250.69 12.554 250.282 12.134 249.766 11.846C249.262 11.546 248.704 11.396 248.092 11.396C247.48 11.396 246.922 11.54 246.418 11.828C245.914 12.116 245.512 12.536 245.212 13.088C244.912 13.64 244.762 14.288 244.762 15.032C244.762 15.788 244.912 16.448 245.212 17.012C245.512 17.564 245.914 17.99 246.418 18.29C246.922 18.578 247.48 18.722 248.092 18.722C248.704 18.722 249.262 18.578 249.766 18.29C250.282 17.99 250.69 17.564 250.99 17.012C251.29 16.448 251.44 15.794 251.44 15.05ZM257.503 11.738C257.791 11.174 258.199 10.736 258.727 10.424C259.267 10.112 259.921 9.956 260.689 9.956V11.648H260.257C258.421 11.648 257.503 12.644 257.503 14.636V20H255.865V10.136H257.503V11.738ZM261.967 15.032C261.967 14.024 262.171 13.142 262.579 12.386C262.987 11.618 263.545 11.024 264.253 10.604C264.973 10.184 265.771 9.974 266.647 9.974C267.511 9.974 268.261 10.16 268.897 10.532C269.533 10.904 270.007 11.372 270.319 11.936V10.136H271.975V20H270.319V18.164C269.995 18.74 269.509 19.22 268.861 19.604C268.225 19.976 267.481 20.162 266.629 20.162C265.753 20.162 264.961 19.946 264.253 19.514C263.545 19.082 262.987 18.476 262.579 17.696C262.171 16.916 261.967 16.028 261.967 15.032ZM270.319 15.05C270.319 14.306 270.169 13.658 269.869 13.106C269.569 12.554 269.161 12.134 268.645 11.846C268.141 11.546 267.583 11.396 266.971 11.396C266.359 11.396 265.801 11.54 265.297 11.828C264.793 12.116 264.391 12.536 264.091 13.088C263.791 13.64 263.641 14.288 263.641 15.032C263.641 15.788 263.791 16.448 264.091 17.012C264.391 17.564 264.793 17.99 265.297 18.29C265.801 18.578 266.359 18.722 266.971 18.722C267.583 18.722 268.141 18.578 268.645 18.29C269.161 17.99 269.569 17.564 269.869 17.012C270.169 16.448 270.319 15.794 270.319 15.05ZM274.131 15.032C274.131 14.024 274.335 13.142 274.743 12.386C275.151 11.618 275.709 11.024 276.417 10.604C277.137 10.184 277.941 9.974 278.829 9.974C279.597 9.974 280.311 10.154 280.971 10.514C281.631 10.862 282.135 11.324 282.483 11.9V6.68H284.139V20H282.483V18.146C282.159 18.734 281.679 19.22 281.043 19.604C280.407 19.976 279.663 20.162 278.811 20.162C277.935 20.162 277.137 19.946 276.417 19.514C275.709 19.082 275.151 18.476 274.743 17.696C274.335 16.916 274.131 16.028 274.131 15.032ZM282.483 15.05C282.483 14.306 282.333 13.658 282.033 13.106C281.733 12.554 281.325 12.134 280.809 11.846C280.305 11.546 279.747 11.396 279.135 11.396C278.523 11.396 277.965 11.54 277.461 11.828C276.957 12.116 276.555 12.536 276.255 13.088C275.955 13.64 275.805 14.288 275.805 15.032C275.805 15.788 275.955 16.448 276.255 17.012C276.555 17.564 276.957 17.99 277.461 18.29C277.965 18.578 278.523 18.722 279.135 18.722C279.747 18.722 280.305 18.578 280.809 18.29C281.325 17.99 281.733 17.564 282.033 17.012C282.333 16.448 282.483 15.794 282.483 15.05ZM291.209 20.162C290.285 20.162 289.445 19.952 288.689 19.532C287.945 19.112 287.357 18.518 286.925 17.75C286.505 16.97 286.295 16.07 286.295 15.05C286.295 14.042 286.511 13.154 286.943 12.386C287.387 11.606 287.987 11.012 288.743 10.604C289.499 10.184 290.345 9.974 291.281 9.974C292.217 9.974 293.063 10.184 293.819 10.604C294.575 11.012 295.169 11.6 295.601 12.368C296.045 13.136 296.267 14.03 296.267 15.05C296.267 16.07 296.039 16.97 295.583 17.75C295.139 18.518 294.533 19.112 293.765 19.532C292.997 19.952 292.145 20.162 291.209 20.162ZM291.209 18.722C291.797 18.722 292.349 18.584 292.865 18.308C293.381 18.032 293.795 17.618 294.107 17.066C294.431 16.514 294.593 15.842 294.593 15.05C294.593 14.258 294.437 13.586 294.125 13.034C293.813 12.482 293.405 12.074 292.901 11.81C292.397 11.534 291.851 11.396 291.263 11.396C290.663 11.396 290.111 11.534 289.607 11.81C289.115 12.074 288.719 12.482 288.419 13.034C288.119 13.586 287.969 14.258 287.969 15.05C287.969 15.854 288.113 16.532 288.401 17.084C288.701 17.636 289.097 18.05 289.589 18.326C290.081 18.59 290.621 18.722 291.209 18.722Z" fill="white"/>
<path d="M120.16 6.61C119.098 5.548 117.691 4.90232 116.193 4.79038C114.696 4.67843 113.208 5.10766 112 6C110.728 5.05363 109.144 4.62451 107.568 4.79903C105.992 4.97356 104.54 5.73877 103.506 6.94058C102.472 8.14239 101.931 9.69152 101.993 11.276C102.055 12.8605 102.715 14.3627 103.84 15.48L111.29 22.93C111.383 23.0237 111.494 23.0981 111.615 23.1489C111.737 23.1997 111.868 23.2258 112 23.2258C112.132 23.2258 112.263 23.1997 112.385 23.1489C112.506 23.0981 112.617 23.0237 112.71 22.93L120.16 15.48C120.743 14.8977 121.205 14.2063 121.52 13.4454C121.836 12.6844 121.998 11.8687 121.998 11.045C121.998 10.2213 121.836 9.40561 121.52 8.64463C121.205 7.88365 120.743 7.19227 120.16 6.61V6.61ZM118.75 14.07L112 20.81L105.25 14.07C104.655 13.4727 104.25 12.713 104.085 11.8863C103.92 11.0596 104.004 10.2027 104.324 9.42299C104.644 8.6433 105.188 7.97559 105.886 7.50362C106.585 7.03165 107.407 6.77644 108.25 6.77C109.376 6.77276 110.455 7.22233 111.25 8.02C111.343 8.11373 111.454 8.18812 111.575 8.23889C111.697 8.28966 111.828 8.3158 111.96 8.3158C112.092 8.3158 112.223 8.28966 112.345 8.23889C112.466 8.18812 112.577 8.11373 112.67 8.02C113.488 7.31088 114.545 6.93914 115.628 6.98002C116.71 7.0209 117.736 7.47134 118.498 8.24019C119.261 9.00903 119.703 10.0388 119.734 11.1212C119.766 12.2035 119.386 13.2576 118.67 14.07H118.75Z" fill="#FF7777"/>
</svg>
