<svg width="451" height="575" viewBox="0 0 451 575" fill="none" xmlns="http://www.w3.org/2000/svg">
<g opacity="0.2" filter="url(#filter0_b_3_58)">
<rect x="0.5" width="450" height="575" rx="48" fill="black"/>
</g>
<path d="M407.5 31C407.896 31 408.282 30.8827 408.611 30.6629C408.94 30.4432 409.196 30.1308 409.348 29.7654C409.499 29.3999 409.539 28.9978 409.462 28.6098C409.384 28.2219 409.194 27.8655 408.914 27.5858C408.635 27.3061 408.278 27.1156 407.89 27.0384C407.502 26.9613 407.1 27.0009 406.735 27.1522C406.369 27.3036 406.057 27.56 405.837 27.8889C405.617 28.2178 405.5 28.6044 405.5 29C405.5 29.5304 405.711 30.0391 406.086 30.4142C406.461 30.7893 406.97 31 407.5 31ZM407.5 41C407.104 41 406.718 41.1173 406.389 41.3371C406.06 41.5568 405.804 41.8692 405.652 42.2346C405.501 42.6001 405.461 43.0022 405.538 43.3902C405.616 43.7781 405.806 44.1345 406.086 44.4142C406.365 44.6939 406.722 44.8844 407.11 44.9616C407.498 45.0387 407.9 44.9991 408.265 44.8478C408.631 44.6964 408.943 44.44 409.163 44.1111C409.383 43.7822 409.5 43.3956 409.5 43C409.5 42.4696 409.289 41.9609 408.914 41.5858C408.539 41.2107 408.03 41 407.5 41ZM407.5 34C407.104 34 406.718 34.1173 406.389 34.3371C406.06 34.5568 405.804 34.8692 405.652 35.2346C405.501 35.6001 405.461 36.0022 405.538 36.3902C405.616 36.7781 405.806 37.1345 406.086 37.4142C406.365 37.6939 406.722 37.8844 407.11 37.9616C407.498 38.0387 407.9 37.9991 408.265 37.8478C408.631 37.6964 408.943 37.44 409.163 37.1111C409.383 36.7822 409.5 36.3956 409.5 36C409.5 35.4696 409.289 34.9609 408.914 34.5858C408.539 34.2107 408.03 34 407.5 34Z" fill="white"/>
<path d="M153.612 104.544V117H151.974V107.712L147.834 117H146.682L142.524 107.694V117H140.886V104.544H142.65L147.258 114.84L151.866 104.544H153.612ZM160.692 117.162C159.768 117.162 158.928 116.952 158.172 116.532C157.428 116.112 156.84 115.518 156.408 114.75C155.988 113.97 155.778 113.07 155.778 112.05C155.778 111.042 155.994 110.154 156.426 109.386C156.87 108.606 157.47 108.012 158.226 107.604C158.982 107.184 159.828 106.974 160.764 106.974C161.7 106.974 162.546 107.184 163.302 107.604C164.058 108.012 164.652 108.6 165.084 109.368C165.528 110.136 165.75 111.03 165.75 112.05C165.75 113.07 165.522 113.97 165.066 114.75C164.622 115.518 164.016 116.112 163.248 116.532C162.48 116.952 161.628 117.162 160.692 117.162ZM160.692 115.722C161.28 115.722 161.832 115.584 162.348 115.308C162.864 115.032 163.278 114.618 163.59 114.066C163.914 113.514 164.076 112.842 164.076 112.05C164.076 111.258 163.92 110.586 163.608 110.034C163.296 109.482 162.888 109.074 162.384 108.81C161.88 108.534 161.334 108.396 160.746 108.396C160.146 108.396 159.594 108.534 159.09 108.81C158.598 109.074 158.202 109.482 157.902 110.034C157.602 110.586 157.452 111.258 157.452 112.05C157.452 112.854 157.596 113.532 157.884 114.084C158.184 114.636 158.58 115.05 159.072 115.326C159.564 115.59 160.104 115.722 160.692 115.722ZM172.71 106.956C173.91 106.956 174.882 107.322 175.626 108.054C176.37 108.774 176.742 109.818 176.742 111.186V117H175.122V111.42C175.122 110.436 174.876 109.686 174.384 109.17C173.892 108.642 173.22 108.378 172.368 108.378C171.504 108.378 170.814 108.648 170.298 109.188C169.794 109.728 169.542 110.514 169.542 111.546V117H167.904V107.136H169.542V108.54C169.866 108.036 170.304 107.646 170.856 107.37C171.42 107.094 172.038 106.956 172.71 106.956ZM178.805 112.032C178.805 111.024 179.009 110.142 179.417 109.386C179.825 108.618 180.383 108.024 181.091 107.604C181.811 107.184 182.615 106.974 183.503 106.974C184.271 106.974 184.985 107.154 185.645 107.514C186.305 107.862 186.809 108.324 187.157 108.9V103.68H188.813V117H187.157V115.146C186.833 115.734 186.353 116.22 185.717 116.604C185.081 116.976 184.337 117.162 183.485 117.162C182.609 117.162 181.811 116.946 181.091 116.514C180.383 116.082 179.825 115.476 179.417 114.696C179.009 113.916 178.805 113.028 178.805 112.032ZM187.157 112.05C187.157 111.306 187.007 110.658 186.707 110.106C186.407 109.554 185.999 109.134 185.483 108.846C184.979 108.546 184.421 108.396 183.809 108.396C183.197 108.396 182.639 108.54 182.135 108.828C181.631 109.116 181.229 109.536 180.929 110.088C180.629 110.64 180.479 111.288 180.479 112.032C180.479 112.788 180.629 113.448 180.929 114.012C181.229 114.564 181.631 114.99 182.135 115.29C182.639 115.578 183.197 115.722 183.809 115.722C184.421 115.722 184.979 115.578 185.483 115.29C185.999 114.99 186.407 114.564 186.707 114.012C187.007 113.448 187.157 112.794 187.157 112.05ZM190.969 112.032C190.969 111.024 191.173 110.142 191.581 109.386C191.989 108.618 192.547 108.024 193.255 107.604C193.975 107.184 194.773 106.974 195.649 106.974C196.513 106.974 197.263 107.16 197.899 107.532C198.535 107.904 199.009 108.372 199.321 108.936V107.136H200.977V117H199.321V115.164C198.997 115.74 198.511 116.22 197.863 116.604C197.227 116.976 196.483 117.162 195.631 117.162C194.755 117.162 193.963 116.946 193.255 116.514C192.547 116.082 191.989 115.476 191.581 114.696C191.173 113.916 190.969 113.028 190.969 112.032ZM199.321 112.05C199.321 111.306 199.171 110.658 198.871 110.106C198.571 109.554 198.163 109.134 197.647 108.846C197.143 108.546 196.585 108.396 195.973 108.396C195.361 108.396 194.803 108.54 194.299 108.828C193.795 109.116 193.393 109.536 193.093 110.088C192.793 110.64 192.643 111.288 192.643 112.032C192.643 112.788 192.793 113.448 193.093 114.012C193.393 114.564 193.795 114.99 194.299 115.29C194.803 115.578 195.361 115.722 195.973 115.722C196.585 115.722 197.143 115.578 197.647 115.29C198.163 114.99 198.571 114.564 198.871 114.012C199.171 113.448 199.321 112.794 199.321 112.05ZM212.241 107.136L206.301 121.644H204.609L206.553 116.892L202.575 107.136H204.393L207.489 115.128L210.549 107.136H212.241ZM218.417 110.358C218.417 108.294 218.753 106.686 219.425 105.534C220.097 104.37 221.273 103.788 222.953 103.788C224.621 103.788 225.791 104.37 226.463 105.534C227.135 106.686 227.471 108.294 227.471 110.358C227.471 112.458 227.135 114.09 226.463 115.254C225.791 116.418 224.621 117 222.953 117C221.273 117 220.097 116.418 219.425 115.254C218.753 114.09 218.417 112.458 218.417 110.358ZM225.851 110.358C225.851 109.314 225.779 108.432 225.635 107.712C225.503 106.98 225.221 106.392 224.789 105.948C224.369 105.504 223.757 105.282 222.953 105.282C222.137 105.282 221.513 105.504 221.081 105.948C220.661 106.392 220.379 106.98 220.235 107.712C220.103 108.432 220.037 109.314 220.037 110.358C220.037 111.438 220.103 112.344 220.235 113.076C220.379 113.808 220.661 114.396 221.081 114.84C221.513 115.284 222.137 115.506 222.953 115.506C223.757 115.506 224.369 115.284 224.789 114.84C225.221 114.396 225.503 113.808 225.635 113.076C225.779 112.344 225.851 111.438 225.851 110.358ZM229.288 105.48V103.986H232.672V117H231.016V105.48H229.288ZM241.875 100.044L236.943 120.06H235.323L240.237 100.044H241.875ZM243.614 105.48V103.986H246.998V117H245.342V105.48H243.614ZM257.821 105.264L252.817 117H251.161L256.237 105.426H249.289V104.022H257.821V105.264ZM266.027 100.044L261.095 120.06H259.475L264.389 100.044H266.027ZM268 115.686C269.524 114.462 270.718 113.46 271.582 112.68C272.446 111.888 273.172 111.066 273.76 110.214C274.36 109.35 274.66 108.504 274.66 107.676C274.66 106.896 274.468 106.284 274.084 105.84C273.712 105.384 273.106 105.156 272.266 105.156C271.45 105.156 270.814 105.414 270.358 105.93C269.914 106.434 269.674 107.112 269.638 107.964H268.054C268.102 106.62 268.51 105.582 269.278 104.85C270.046 104.118 271.036 103.752 272.248 103.752C273.484 103.752 274.462 104.094 275.182 104.778C275.914 105.462 276.28 106.404 276.28 107.604C276.28 108.6 275.98 109.572 275.38 110.52C274.792 111.456 274.12 112.284 273.364 113.004C272.608 113.712 271.642 114.54 270.466 115.488H276.658V116.856H268V115.686ZM278.552 110.358C278.552 108.294 278.888 106.686 279.56 105.534C280.232 104.37 281.408 103.788 283.088 103.788C284.756 103.788 285.926 104.37 286.598 105.534C287.27 106.686 287.606 108.294 287.606 110.358C287.606 112.458 287.27 114.09 286.598 115.254C285.926 116.418 284.756 117 283.088 117C281.408 117 280.232 116.418 279.56 115.254C278.888 114.09 278.552 112.458 278.552 110.358ZM285.986 110.358C285.986 109.314 285.914 108.432 285.77 107.712C285.638 106.98 285.356 106.392 284.924 105.948C284.504 105.504 283.892 105.282 283.088 105.282C282.272 105.282 281.648 105.504 281.216 105.948C280.796 106.392 280.514 106.98 280.37 107.712C280.238 108.432 280.172 109.314 280.172 110.358C280.172 111.438 280.238 112.344 280.37 113.076C280.514 113.808 280.796 114.396 281.216 114.84C281.648 115.284 282.272 115.506 283.088 115.506C283.892 115.506 284.504 115.284 284.924 114.84C285.356 114.396 285.638 113.808 285.77 113.076C285.914 112.344 285.986 111.438 285.986 110.358ZM289.656 115.686C291.18 114.462 292.374 113.46 293.238 112.68C294.102 111.888 294.828 111.066 295.416 110.214C296.016 109.35 296.316 108.504 296.316 107.676C296.316 106.896 296.124 106.284 295.74 105.84C295.368 105.384 294.762 105.156 293.922 105.156C293.106 105.156 292.47 105.414 292.014 105.93C291.57 106.434 291.33 107.112 291.294 107.964H289.71C289.758 106.62 290.166 105.582 290.934 104.85C291.702 104.118 292.692 103.752 293.904 103.752C295.14 103.752 296.118 104.094 296.838 104.778C297.57 105.462 297.936 106.404 297.936 107.604C297.936 108.6 297.636 109.572 297.036 110.52C296.448 111.456 295.776 112.284 295.02 113.004C294.264 113.712 293.298 114.54 292.122 115.488H298.314V116.856H289.656V115.686ZM300.01 115.686C301.534 114.462 302.728 113.46 303.592 112.68C304.456 111.888 305.182 111.066 305.77 110.214C306.37 109.35 306.67 108.504 306.67 107.676C306.67 106.896 306.478 106.284 306.094 105.84C305.722 105.384 305.116 105.156 304.276 105.156C303.46 105.156 302.824 105.414 302.368 105.93C301.924 106.434 301.684 107.112 301.648 107.964H300.064C300.112 106.62 300.52 105.582 301.288 104.85C302.056 104.118 303.046 103.752 304.258 103.752C305.494 103.752 306.472 104.094 307.192 104.778C307.924 105.462 308.29 106.404 308.29 107.604C308.29 108.6 307.99 109.572 307.39 110.52C306.802 111.456 306.13 112.284 305.374 113.004C304.618 113.712 303.652 114.54 302.476 115.488H308.668V116.856H300.01V115.686Z" fill="white"/>
<path d="M177.612 339.544V352H175.974V342.712L171.834 352H170.682L166.524 342.694V352H164.886V339.544H166.65L171.258 349.84L175.866 339.544H177.612ZM184.692 352.162C183.768 352.162 182.928 351.952 182.172 351.532C181.428 351.112 180.84 350.518 180.408 349.75C179.988 348.97 179.778 348.07 179.778 347.05C179.778 346.042 179.994 345.154 180.426 344.386C180.87 343.606 181.47 343.012 182.226 342.604C182.982 342.184 183.828 341.974 184.764 341.974C185.7 341.974 186.546 342.184 187.302 342.604C188.058 343.012 188.652 343.6 189.084 344.368C189.528 345.136 189.75 346.03 189.75 347.05C189.75 348.07 189.522 348.97 189.066 349.75C188.622 350.518 188.016 351.112 187.248 351.532C186.48 351.952 185.628 352.162 184.692 352.162ZM184.692 350.722C185.28 350.722 185.832 350.584 186.348 350.308C186.864 350.032 187.278 349.618 187.59 349.066C187.914 348.514 188.076 347.842 188.076 347.05C188.076 346.258 187.92 345.586 187.608 345.034C187.296 344.482 186.888 344.074 186.384 343.81C185.88 343.534 185.334 343.396 184.746 343.396C184.146 343.396 183.594 343.534 183.09 343.81C182.598 344.074 182.202 344.482 181.902 345.034C181.602 345.586 181.452 346.258 181.452 347.05C181.452 347.854 181.596 348.532 181.884 349.084C182.184 349.636 182.58 350.05 183.072 350.326C183.564 350.59 184.104 350.722 184.692 350.722ZM195.396 352.162C194.64 352.162 193.962 352.036 193.362 351.784C192.762 351.52 192.288 351.16 191.94 350.704C191.592 350.236 191.4 349.702 191.364 349.102H193.056C193.104 349.594 193.332 349.996 193.74 350.308C194.16 350.62 194.706 350.776 195.378 350.776C196.002 350.776 196.494 350.638 196.854 350.362C197.214 350.086 197.394 349.738 197.394 349.318C197.394 348.886 197.202 348.568 196.818 348.364C196.434 348.148 195.84 347.938 195.036 347.734C194.304 347.542 193.704 347.35 193.236 347.158C192.78 346.954 192.384 346.66 192.048 346.276C191.724 345.88 191.562 345.364 191.562 344.728C191.562 344.224 191.712 343.762 192.012 343.342C192.312 342.922 192.738 342.592 193.29 342.352C193.842 342.1 194.472 341.974 195.18 341.974C196.272 341.974 197.154 342.25 197.826 342.802C198.498 343.354 198.858 344.11 198.906 345.07H197.268C197.232 344.554 197.022 344.14 196.638 343.828C196.266 343.516 195.762 343.36 195.126 343.36C194.538 343.36 194.07 343.486 193.722 343.738C193.374 343.99 193.2 344.32 193.2 344.728C193.2 345.052 193.302 345.322 193.506 345.538C193.722 345.742 193.986 345.91 194.298 346.042C194.622 346.162 195.066 346.3 195.63 346.456C196.338 346.648 196.914 346.84 197.358 347.032C197.802 347.212 198.18 347.488 198.492 347.86C198.816 348.232 198.984 348.718 198.996 349.318C198.996 349.858 198.846 350.344 198.546 350.776C198.246 351.208 197.82 351.55 197.268 351.802C196.728 352.042 196.104 352.162 195.396 352.162ZM203.306 343.486V349.3C203.306 349.78 203.408 350.122 203.612 350.326C203.816 350.518 204.17 350.614 204.674 350.614H205.88V352H204.404C203.492 352 202.808 351.79 202.352 351.37C201.896 350.95 201.668 350.26 201.668 349.3V343.486H200.39V342.136H201.668V339.652H203.306V342.136H205.88V343.486H203.306ZM209.503 338.68V352H207.865V338.68H209.503ZM220.79 342.136L214.85 356.644H213.158L215.102 351.892L211.124 342.136H212.942L216.038 350.128L219.098 342.136H220.79ZM226.624 347.05C226.624 346.03 226.828 345.142 227.236 344.386C227.644 343.618 228.208 343.024 228.928 342.604C229.66 342.184 230.494 341.974 231.43 341.974C232.642 341.974 233.638 342.268 234.418 342.856C235.21 343.444 235.732 344.26 235.984 345.304H234.22C234.052 344.704 233.722 344.23 233.23 343.882C232.75 343.534 232.15 343.36 231.43 343.36C230.494 343.36 229.738 343.684 229.162 344.332C228.586 344.968 228.298 345.874 228.298 347.05C228.298 348.238 228.586 349.156 229.162 349.804C229.738 350.452 230.494 350.776 231.43 350.776C232.15 350.776 232.75 350.608 233.23 350.272C233.71 349.936 234.04 349.456 234.22 348.832H235.984C235.72 349.84 235.192 350.65 234.4 351.262C233.608 351.862 232.618 352.162 231.43 352.162C230.494 352.162 229.66 351.952 228.928 351.532C228.208 351.112 227.644 350.518 227.236 349.75C226.828 348.982 226.624 348.082 226.624 347.05ZM239.807 338.68V352H238.169V338.68H239.807ZM246.901 352.162C245.977 352.162 245.137 351.952 244.381 351.532C243.637 351.112 243.049 350.518 242.617 349.75C242.197 348.97 241.987 348.07 241.987 347.05C241.987 346.042 242.203 345.154 242.635 344.386C243.079 343.606 243.679 343.012 244.435 342.604C245.191 342.184 246.037 341.974 246.973 341.974C247.909 341.974 248.755 342.184 249.511 342.604C250.267 343.012 250.861 343.6 251.293 344.368C251.737 345.136 251.959 346.03 251.959 347.05C251.959 348.07 251.731 348.97 251.275 349.75C250.831 350.518 250.225 351.112 249.457 351.532C248.689 351.952 247.837 352.162 246.901 352.162ZM246.901 350.722C247.489 350.722 248.041 350.584 248.557 350.308C249.073 350.032 249.487 349.618 249.799 349.066C250.123 348.514 250.285 347.842 250.285 347.05C250.285 346.258 250.129 345.586 249.817 345.034C249.505 344.482 249.097 344.074 248.593 343.81C248.089 343.534 247.543 343.396 246.955 343.396C246.355 343.396 245.803 343.534 245.299 343.81C244.807 344.074 244.411 344.482 244.111 345.034C243.811 345.586 243.661 346.258 243.661 347.05C243.661 347.854 243.805 348.532 244.093 349.084C244.393 349.636 244.789 350.05 245.281 350.326C245.773 350.59 246.313 350.722 246.901 350.722ZM262.861 342.136V352H261.223V350.542C260.911 351.046 260.473 351.442 259.909 351.73C259.357 352.006 258.745 352.144 258.073 352.144C257.305 352.144 256.615 351.988 256.003 351.676C255.391 351.352 254.905 350.872 254.545 350.236C254.197 349.6 254.023 348.826 254.023 347.914V342.136H255.643V347.698C255.643 348.67 255.889 349.42 256.381 349.948C256.873 350.464 257.545 350.722 258.397 350.722C259.273 350.722 259.963 350.452 260.467 349.912C260.971 349.372 261.223 348.586 261.223 347.554V342.136H262.861ZM265.014 347.032C265.014 346.024 265.218 345.142 265.626 344.386C266.034 343.618 266.592 343.024 267.3 342.604C268.02 342.184 268.824 341.974 269.712 341.974C270.48 341.974 271.194 342.154 271.854 342.514C272.514 342.862 273.018 343.324 273.366 343.9V338.68H275.022V352H273.366V350.146C273.042 350.734 272.562 351.22 271.926 351.604C271.29 351.976 270.546 352.162 269.694 352.162C268.818 352.162 268.02 351.946 267.3 351.514C266.592 351.082 266.034 350.476 265.626 349.696C265.218 348.916 265.014 348.028 265.014 347.032ZM273.366 347.05C273.366 346.306 273.216 345.658 272.916 345.106C272.616 344.554 272.208 344.134 271.692 343.846C271.188 343.546 270.63 343.396 270.018 343.396C269.406 343.396 268.848 343.54 268.344 343.828C267.84 344.116 267.438 344.536 267.138 345.088C266.838 345.64 266.688 346.288 266.688 347.032C266.688 347.788 266.838 348.448 267.138 349.012C267.438 349.564 267.84 349.99 268.344 350.29C268.848 350.578 269.406 350.722 270.018 350.722C270.63 350.722 271.188 350.578 271.692 350.29C272.208 349.99 272.616 349.564 272.916 349.012C273.216 348.448 273.366 347.794 273.366 347.05ZM286.286 342.136L280.346 356.644H278.654L280.598 351.892L276.62 342.136H278.438L281.534 350.128L284.594 342.136H286.286Z" fill="white"/>
<path fill-rule="evenodd" clip-rule="evenodd" d="M109.965 98.9623C108.935 98.9092 108.148 98.0311 108.148 97C108.148 95.9689 108.935 95.0908 109.965 95.0377L113.91 94.8342C115.17 94.7693 116.25 95.7383 116.25 97C116.25 98.2617 115.17 99.2307 113.91 99.1658L109.965 98.9623ZM103.376 79.1709C103.892 80.0631 105.014 80.4325 105.932 79.9638L109.445 78.1704C110.572 77.595 111.022 76.2082 110.388 75.1129C109.755 74.0176 108.332 73.7232 107.271 74.4134L103.965 76.5645C103.101 77.1268 102.86 78.2786 103.376 79.1709ZM90.3291 66.1239C91.2214 66.6402 92.3732 66.3988 92.9355 65.5347L95.0865 62.2291C95.7768 61.1684 95.4824 59.7454 94.3871 59.1115C93.2918 58.4777 91.905 58.9284 91.3296 60.0555L89.5362 63.568C89.0675 64.4862 89.4369 65.6075 90.3291 66.1239ZM72.5 61.3519C73.5311 61.3519 74.4092 60.5651 74.4623 59.5354L74.6658 55.5902C74.7307 54.3302 73.7617 53.25 72.5 53.25C71.2383 53.25 70.2693 54.3302 70.3342 55.5902L70.5377 59.5354C70.5908 60.5651 71.4689 61.3519 72.5 61.3519ZM54.6709 66.1239C55.5631 65.6075 55.9325 64.4862 55.4638 63.568L53.6704 60.0555C53.095 58.9284 51.7082 58.4777 50.6129 59.1115C49.5176 59.7454 49.2232 61.1684 49.9134 62.2291L52.0645 65.5347C52.6268 66.3988 53.7786 66.6402 54.6709 66.1239ZM41.6239 79.1709C42.1402 78.2786 41.8988 77.1268 41.0347 76.5645L37.7291 74.4135C36.6684 73.7232 35.2454 74.0176 34.6115 75.1129C33.9777 76.2082 34.4284 77.595 35.5555 78.1704L39.068 79.9638C39.9862 80.4325 41.1075 80.0631 41.6239 79.1709ZM35.0354 95.0377C36.0651 95.0908 36.8519 95.9689 36.8519 97C36.8519 98.0311 36.0651 98.9092 35.0354 98.9623L31.0902 99.1658C29.8302 99.2307 28.75 98.2617 28.75 97C28.75 95.7383 29.8302 94.7693 31.0902 94.8342L35.0354 95.0377ZM41.6239 114.829C41.1075 113.937 39.9862 113.567 39.068 114.036L35.5555 115.83C34.4284 116.405 33.9777 117.792 34.6115 118.887C35.2454 119.982 36.6684 120.277 37.7291 119.587L41.0347 117.435C41.8988 116.873 42.1402 115.721 41.6239 114.829ZM54.6709 127.876C53.7786 127.36 52.6268 127.601 52.0645 128.465L49.9135 131.771C49.2232 132.832 49.5176 134.255 50.6129 134.888C51.7082 135.522 53.095 135.072 53.6704 133.945L55.4638 130.432C55.9325 129.514 55.5631 128.392 54.6709 127.876ZM72.5 132.648C71.4689 132.648 70.5908 133.435 70.5377 134.465L70.3342 138.41C70.2693 139.67 71.2383 140.75 72.5 140.75C73.7617 140.75 74.7307 139.67 74.6658 138.41L74.4623 134.465C74.4092 133.435 73.5311 132.648 72.5 132.648ZM90.3291 127.876C89.4369 128.392 89.0675 129.514 89.5362 130.432L91.3296 133.945C91.905 135.072 93.2918 135.522 94.3871 134.888C95.4824 134.255 95.7768 132.832 95.0866 131.771L92.9355 128.465C92.3732 127.601 91.2214 127.36 90.3291 127.876ZM103.376 114.829C102.86 115.721 103.101 116.873 103.965 117.435L107.271 119.587C108.332 120.277 109.755 119.982 110.388 118.887C111.022 117.792 110.572 116.405 109.445 115.83L105.932 114.036C105.014 113.567 103.892 113.937 103.376 114.829Z" fill="#FFDE33"/>
<path d="M102.477 97C102.477 113.556 89.0557 126.977 72.5 126.977C55.9442 126.977 42.5231 113.556 42.5231 97C42.5231 80.4442 55.9442 67.0231 72.5 67.0231C89.0557 67.0231 102.477 80.4442 102.477 97Z" fill="#FFDE33"/>
<path d="M156.204 70.248L150.06 87H145.98L139.836 70.248H143.436L148.044 83.568L152.628 70.248H156.204ZM157.354 80.304C157.354 78.96 157.618 77.768 158.146 76.728C158.691 75.688 159.419 74.888 160.331 74.328C161.259 73.768 162.291 73.488 163.427 73.488C164.419 73.488 165.283 73.688 166.019 74.088C166.771 74.488 167.371 74.992 167.819 75.6V73.704H171.203V87H167.819V85.056C167.387 85.68 166.787 86.2 166.019 86.616C165.267 87.016 164.395 87.216 163.403 87.216C162.283 87.216 161.259 86.928 160.331 86.352C159.419 85.776 158.691 84.968 158.146 83.928C157.618 82.872 157.354 81.664 157.354 80.304ZM167.819 80.352C167.819 79.536 167.659 78.84 167.339 78.264C167.019 77.672 166.587 77.224 166.043 76.92C165.499 76.6 164.915 76.44 164.291 76.44C163.667 76.44 163.091 76.592 162.562 76.896C162.035 77.2 161.603 77.648 161.267 78.24C160.947 78.816 160.787 79.504 160.787 80.304C160.787 81.104 160.947 81.808 161.267 82.416C161.603 83.008 162.035 83.464 162.562 83.784C163.107 84.104 163.683 84.264 164.291 84.264C164.915 84.264 165.499 84.112 166.043 83.808C166.587 83.488 167.019 83.04 167.339 82.464C167.659 81.872 167.819 81.168 167.819 80.352ZM177.844 69.24V87H174.484V69.24H177.844ZM184.524 69.24V87H181.164V69.24H184.524ZM200.204 80.064C200.204 80.544 200.172 80.976 200.108 81.36H190.388C190.468 82.32 190.804 83.072 191.396 83.616C191.988 84.16 192.716 84.432 193.58 84.432C194.828 84.432 195.716 83.896 196.244 82.824H199.868C199.484 84.104 198.748 85.16 197.66 85.992C196.572 86.808 195.236 87.216 193.652 87.216C192.372 87.216 191.22 86.936 190.196 86.376C189.188 85.8 188.396 84.992 187.82 83.952C187.26 82.912 186.979 81.712 186.979 80.352C186.979 78.976 187.26 77.768 187.82 76.728C188.38 75.688 189.164 74.888 190.172 74.328C191.18 73.768 192.34 73.488 193.652 73.488C194.916 73.488 196.044 73.76 197.036 74.304C198.044 74.848 198.82 75.624 199.364 76.632C199.924 77.624 200.204 78.768 200.204 80.064ZM196.724 79.104C196.708 78.24 196.396 77.552 195.788 77.04C195.18 76.512 194.436 76.248 193.556 76.248C192.724 76.248 192.02 76.504 191.444 77.016C190.884 77.512 190.54 78.208 190.412 79.104H196.724ZM207.511 80.304C207.511 78.96 207.775 77.768 208.303 76.728C208.847 75.688 209.583 74.888 210.511 74.328C211.439 73.768 212.471 73.488 213.607 73.488C214.471 73.488 215.295 73.68 216.079 74.064C216.863 74.432 217.487 74.928 217.951 75.552V69.24H221.359V87H217.951V85.032C217.535 85.688 216.951 86.216 216.199 86.616C215.447 87.016 214.575 87.216 213.583 87.216C212.463 87.216 211.439 86.928 210.511 86.352C209.583 85.776 208.847 84.968 208.303 83.928C207.775 82.872 207.511 81.664 207.511 80.304ZM217.975 80.352C217.975 79.536 217.815 78.84 217.495 78.264C217.175 77.672 216.743 77.224 216.199 76.92C215.655 76.6 215.071 76.44 214.447 76.44C213.823 76.44 213.247 76.592 212.719 76.896C212.191 77.2 211.759 77.648 211.423 78.24C211.103 78.816 210.943 79.504 210.943 80.304C210.943 81.104 211.103 81.808 211.423 82.416C211.759 83.008 212.191 83.464 212.719 83.784C213.263 84.104 213.839 84.264 214.447 84.264C215.071 84.264 215.655 84.112 216.199 83.808C216.743 83.488 217.175 83.04 217.495 82.464C217.815 81.872 217.975 81.168 217.975 80.352ZM237 80.064C237 80.544 236.968 80.976 236.904 81.36H227.184C227.264 82.32 227.6 83.072 228.192 83.616C228.784 84.16 229.512 84.432 230.376 84.432C231.624 84.432 232.512 83.896 233.04 82.824H236.664C236.28 84.104 235.544 85.16 234.456 85.992C233.368 86.808 232.032 87.216 230.448 87.216C229.168 87.216 228.016 86.936 226.992 86.376C225.984 85.8 225.192 84.992 224.616 83.952C224.056 82.912 223.776 81.712 223.776 80.352C223.776 78.976 224.056 77.768 224.616 76.728C225.176 75.688 225.96 74.888 226.968 74.328C227.976 73.768 229.136 73.488 230.448 73.488C231.712 73.488 232.84 73.76 233.832 74.304C234.84 74.848 235.616 75.624 236.16 76.632C236.72 77.624 237 78.768 237 80.064ZM233.52 79.104C233.504 78.24 233.192 77.552 232.584 77.04C231.976 76.512 231.232 76.248 230.352 76.248C229.52 76.248 228.816 76.504 228.24 77.016C227.68 77.512 227.336 78.208 227.208 79.104H233.52ZM255.444 83.808H248.772L247.668 87H244.14L250.164 70.224H254.076L260.1 87H256.548L255.444 83.808ZM254.532 81.12L252.108 74.112L249.684 81.12H254.532ZM269.719 73.512C271.303 73.512 272.583 74.016 273.559 75.024C274.535 76.016 275.023 77.408 275.023 79.2V87H271.663V79.656C271.663 78.6 271.399 77.792 270.871 77.232C270.343 76.656 269.623 76.368 268.711 76.368C267.783 76.368 267.047 76.656 266.503 77.232C265.975 77.792 265.711 78.6 265.711 79.656V87H262.351V73.704H265.711V75.36C266.159 74.784 266.727 74.336 267.415 74.016C268.119 73.68 268.887 73.512 269.719 73.512ZM283.427 73.488C284.419 73.488 285.291 73.688 286.043 74.088C286.795 74.472 287.387 74.976 287.819 75.6V73.704H291.203V87.096C291.203 88.328 290.955 89.424 290.459 90.384C289.963 91.36 289.219 92.128 288.227 92.688C287.235 93.264 286.035 93.552 284.627 93.552C282.739 93.552 281.187 93.112 279.971 92.232C278.771 91.352 278.091 90.152 277.931 88.632H281.267C281.443 89.24 281.819 89.72 282.395 90.072C282.987 90.44 283.699 90.624 284.531 90.624C285.507 90.624 286.299 90.328 286.907 89.736C287.515 89.16 287.819 88.28 287.819 87.096V85.032C287.387 85.656 286.787 86.176 286.019 86.592C285.267 87.008 284.403 87.216 283.427 87.216C282.307 87.216 281.283 86.928 280.355 86.352C279.427 85.776 278.691 84.968 278.146 83.928C277.618 82.872 277.354 81.664 277.354 80.304C277.354 78.96 277.618 77.768 278.146 76.728C278.691 75.688 279.419 74.888 280.331 74.328C281.259 73.768 282.291 73.488 283.427 73.488ZM287.819 80.352C287.819 79.536 287.659 78.84 287.339 78.264C287.019 77.672 286.587 77.224 286.043 76.92C285.499 76.6 284.915 76.44 284.291 76.44C283.667 76.44 283.091 76.592 282.562 76.896C282.035 77.2 281.603 77.648 281.267 78.24C280.947 78.816 280.787 79.504 280.787 80.304C280.787 81.104 280.947 81.808 281.267 82.416C281.603 83.008 282.035 83.464 282.562 83.784C283.107 84.104 283.683 84.264 284.291 84.264C284.915 84.264 285.499 84.112 286.043 83.808C286.587 83.488 287.019 83.04 287.339 82.464C287.659 81.872 287.819 81.168 287.819 80.352ZM306.844 80.064C306.844 80.544 306.812 80.976 306.748 81.36H297.028C297.108 82.32 297.444 83.072 298.036 83.616C298.628 84.16 299.356 84.432 300.22 84.432C301.468 84.432 302.356 83.896 302.884 82.824H306.508C306.124 84.104 305.388 85.16 304.3 85.992C303.212 86.808 301.876 87.216 300.292 87.216C299.012 87.216 297.86 86.936 296.836 86.376C295.828 85.8 295.036 84.992 294.46 83.952C293.9 82.912 293.62 81.712 293.62 80.352C293.62 78.976 293.9 77.768 294.46 76.728C295.02 75.688 295.804 74.888 296.812 74.328C297.82 73.768 298.98 73.488 300.292 73.488C301.556 73.488 302.684 73.76 303.676 74.304C304.684 74.848 305.46 75.624 306.004 76.632C306.564 77.624 306.844 78.768 306.844 80.064ZM303.364 79.104C303.348 78.24 303.036 77.552 302.428 77.04C301.82 76.512 301.076 76.248 300.196 76.248C299.364 76.248 298.66 76.504 298.084 77.016C297.524 77.512 297.18 78.208 297.052 79.104H303.364ZM312.657 69.24V87H309.297V69.24H312.657ZM328.336 80.064C328.336 80.544 328.304 80.976 328.24 81.36H318.52C318.6 82.32 318.936 83.072 319.528 83.616C320.12 84.16 320.848 84.432 321.712 84.432C322.96 84.432 323.848 83.896 324.376 82.824H328C327.616 84.104 326.88 85.16 325.792 85.992C324.704 86.808 323.368 87.216 321.784 87.216C320.504 87.216 319.352 86.936 318.328 86.376C317.32 85.8 316.528 84.992 315.952 83.952C315.392 82.912 315.112 81.712 315.112 80.352C315.112 78.976 315.392 77.768 315.952 76.728C316.512 75.688 317.296 74.888 318.304 74.328C319.312 73.768 320.472 73.488 321.784 73.488C323.048 73.488 324.176 73.76 325.168 74.304C326.176 74.848 326.952 75.624 327.496 76.632C328.056 77.624 328.336 78.768 328.336 80.064ZM324.856 79.104C324.84 78.24 324.528 77.552 323.92 77.04C323.312 76.512 322.568 76.248 321.688 76.248C320.856 76.248 320.152 76.504 319.576 77.016C319.016 77.512 318.672 78.208 318.544 79.104H324.856ZM335.877 87.216C334.789 87.216 333.813 87.024 332.949 86.64C332.085 86.24 331.397 85.704 330.885 85.032C330.389 84.36 330.117 83.616 330.069 82.8H333.453C333.517 83.312 333.765 83.736 334.197 84.072C334.645 84.408 335.197 84.576 335.853 84.576C336.493 84.576 336.989 84.448 337.341 84.192C337.709 83.936 337.893 83.608 337.893 83.208C337.893 82.776 337.669 82.456 337.221 82.248C336.789 82.024 336.093 81.784 335.133 81.528C334.141 81.288 333.325 81.04 332.685 80.784C332.061 80.528 331.517 80.136 331.053 79.608C330.605 79.08 330.381 78.368 330.381 77.472C330.381 76.736 330.589 76.064 331.005 75.456C331.437 74.848 332.045 74.368 332.829 74.016C333.629 73.664 334.565 73.488 335.637 73.488C337.221 73.488 338.485 73.888 339.429 74.688C340.373 75.472 340.893 76.536 340.989 77.88H337.773C337.725 77.352 337.501 76.936 337.101 76.632C336.717 76.312 336.197 76.152 335.541 76.152C334.933 76.152 334.461 76.264 334.125 76.488C333.805 76.712 333.645 77.024 333.645 77.424C333.645 77.872 333.869 78.216 334.317 78.456C334.765 78.68 335.461 78.912 336.405 79.152C337.365 79.392 338.157 79.64 338.781 79.896C339.405 80.152 339.941 80.552 340.389 81.096C340.853 81.624 341.093 82.328 341.109 83.208C341.109 83.976 340.893 84.664 340.461 85.272C340.045 85.88 339.437 86.36 338.637 86.712C337.853 87.048 336.933 87.216 335.877 87.216ZM347.539 83.472L344.731 90.216H342.571L344.131 83.472H347.539ZM369.575 70.248V87H366.215V79.872H359.039V87H355.679V70.248H359.039V77.136H366.215V70.248H369.575ZM387.211 87H383.851L376.243 75.504V87H372.883V70.224H376.243L383.851 81.744V70.224H387.211V87Z" fill="white"/>
<path d="M163.464 215.824V206.752H187.944V310H177.72V215.824H163.464ZM275.495 215.392H222.791V252.256C225.191 248.896 228.695 246.16 233.303 244.048C237.911 241.84 242.903 240.736 248.279 240.736C256.151 240.736 262.583 242.368 267.575 245.632C272.567 248.8 276.167 252.976 278.375 258.16C280.583 263.248 281.687 268.72 281.687 274.576C281.687 281.296 280.391 287.392 277.799 292.864C275.303 298.24 271.415 302.512 266.135 305.68C260.951 308.848 254.471 310.432 246.695 310.432C236.807 310.432 228.791 307.888 222.647 302.8C216.503 297.616 212.759 290.656 211.415 281.92H221.351C222.599 288.256 225.479 293.152 229.991 296.608C234.503 300.064 240.071 301.792 246.695 301.792C255.047 301.792 261.335 299.344 265.559 294.448C269.879 289.456 272.039 282.88 272.039 274.72C272.039 266.752 269.879 260.56 265.559 256.144C261.239 251.632 255.047 249.376 246.983 249.376C241.415 249.376 236.519 250.672 232.295 253.264C228.071 255.856 224.951 259.36 222.935 263.776H213.431V206.608H275.495V215.392Z" fill="white"/>
<path d="M287.696 212.472C287.696 211.208 288.072 210.192 288.824 209.424C289.576 208.656 290.544 208.272 291.728 208.272C292.912 208.272 293.88 208.656 294.632 209.424C295.384 210.192 295.76 211.208 295.76 212.472C295.76 213.304 295.584 214.04 295.232 214.68C294.896 215.304 294.416 215.792 293.792 216.144C293.184 216.496 292.488 216.672 291.704 216.672C290.504 216.672 289.536 216.288 288.8 215.52C288.064 214.752 287.696 213.736 287.696 212.472ZM294.368 212.472C294.368 211.48 294.12 210.704 293.624 210.144C293.128 209.584 292.488 209.304 291.704 209.304C290.936 209.304 290.304 209.584 289.808 210.144C289.312 210.704 289.064 211.48 289.064 212.472C289.064 213.464 289.304 214.24 289.784 214.8C290.28 215.344 290.92 215.616 291.704 215.616C292.472 215.616 293.104 215.344 293.6 214.8C294.112 214.24 294.368 213.464 294.368 212.472ZM297.597 216.6C297.597 214.952 297.957 213.48 298.677 212.184C299.397 210.872 300.381 209.856 301.629 209.136C302.877 208.4 304.269 208.032 305.805 208.032C307.677 208.032 309.277 208.48 310.605 209.376C311.949 210.256 312.925 211.504 313.533 213.12H311.565C311.085 211.984 310.349 211.096 309.357 210.456C308.381 209.816 307.197 209.496 305.805 209.496C304.573 209.496 303.461 209.784 302.469 210.36C301.493 210.936 300.725 211.768 300.165 212.856C299.605 213.928 299.325 215.176 299.325 216.6C299.325 218.024 299.605 219.272 300.165 220.344C300.725 221.416 301.493 222.24 302.469 222.816C303.461 223.392 304.573 223.68 305.805 223.68C307.197 223.68 308.381 223.368 309.357 222.744C310.349 222.104 311.085 221.224 311.565 220.104H313.533C312.925 221.704 311.949 222.944 310.605 223.824C309.261 224.704 307.661 225.144 305.805 225.144C304.269 225.144 302.877 224.784 301.629 224.064C300.381 223.328 299.397 222.312 298.677 221.016C297.957 219.72 297.597 218.248 297.597 216.6Z" fill="white"/>
<g clip-path="url(#clip0_3_58)">
<path d="M56.42 450.6C54.4 445.91 50.6 443 46.5 443C42.4 443 38.6 445.91 36.58 450.6C36.5249 450.726 36.4965 450.862 36.4965 451C36.4965 451.138 36.5249 451.274 36.58 451.4C38.6 456.09 42.4 459 46.5 459C50.6 459 54.4 456.09 56.42 451.4C56.4751 451.274 56.5035 451.138 56.5035 451C56.5035 450.862 56.4751 450.726 56.42 450.6V450.6ZM46.5 457C43.32 457 40.33 454.71 38.6 451C40.33 447.29 43.32 445 46.5 445C49.68 445 52.67 447.29 54.4 451C52.67 454.71 49.68 457 46.5 457ZM46.5 447C45.7089 447 44.9355 447.235 44.2777 447.674C43.6199 448.114 43.1072 448.738 42.8045 449.469C42.5017 450.2 42.4225 451.004 42.5769 451.78C42.7312 452.556 43.1122 453.269 43.6716 453.828C44.231 454.388 44.9437 454.769 45.7196 454.923C46.4956 455.077 47.2998 454.998 48.0307 454.696C48.7616 454.393 49.3864 453.88 49.8259 453.222C50.2654 452.564 50.5 451.791 50.5 451C50.5 449.939 50.0786 448.922 49.3284 448.172C48.5783 447.421 47.5609 447 46.5 447V447ZM46.5 453C46.1044 453 45.7178 452.883 45.3889 452.663C45.06 452.443 44.8036 452.131 44.6522 451.765C44.5009 451.4 44.4613 450.998 44.5384 450.61C44.6156 450.222 44.8061 449.865 45.0858 449.586C45.3655 449.306 45.7219 449.116 46.1098 449.038C46.4978 448.961 46.8999 449.001 47.2654 449.152C47.6308 449.304 47.9432 449.56 48.1629 449.889C48.3827 450.218 48.5 450.604 48.5 451C48.5 451.53 48.2893 452.039 47.9142 452.414C47.5391 452.789 47.0304 453 46.5 453Z" fill="white"/>
</g>
<path d="M74.754 444.454L70.02 457H68.13L63.396 444.454H65.142L69.084 455.272L73.026 444.454H74.754ZM77.3961 445.534C77.0841 445.534 76.8201 445.426 76.6041 445.21C76.3881 444.994 76.2801 444.73 76.2801 444.418C76.2801 444.106 76.3881 443.842 76.6041 443.626C76.8201 443.41 77.0841 443.302 77.3961 443.302C77.6961 443.302 77.9481 443.41 78.1521 443.626C78.3681 443.842 78.4761 444.106 78.4761 444.418C78.4761 444.73 78.3681 444.994 78.1521 445.21C77.9481 445.426 77.6961 445.534 77.3961 445.534ZM78.1881 447.136V457H76.5501V447.136H78.1881ZM84.4718 457.162C83.7158 457.162 83.0378 457.036 82.4378 456.784C81.8378 456.52 81.3638 456.16 81.0158 455.704C80.6678 455.236 80.4758 454.702 80.4398 454.102H82.1318C82.1798 454.594 82.4078 454.996 82.8158 455.308C83.2358 455.62 83.7818 455.776 84.4538 455.776C85.0778 455.776 85.5698 455.638 85.9298 455.362C86.2898 455.086 86.4698 454.738 86.4698 454.318C86.4698 453.886 86.2778 453.568 85.8938 453.364C85.5098 453.148 84.9158 452.938 84.1118 452.734C83.3798 452.542 82.7798 452.35 82.3118 452.158C81.8558 451.954 81.4598 451.66 81.1238 451.276C80.7998 450.88 80.6378 450.364 80.6378 449.728C80.6378 449.224 80.7878 448.762 81.0878 448.342C81.3878 447.922 81.8138 447.592 82.3658 447.352C82.9178 447.1 83.5478 446.974 84.2558 446.974C85.3478 446.974 86.2298 447.25 86.9018 447.802C87.5738 448.354 87.9338 449.11 87.9818 450.07H86.3438C86.3078 449.554 86.0978 449.14 85.7138 448.828C85.3418 448.516 84.8378 448.36 84.2018 448.36C83.6138 448.36 83.1458 448.486 82.7978 448.738C82.4498 448.99 82.2758 449.32 82.2758 449.728C82.2758 450.052 82.3778 450.322 82.5818 450.538C82.7978 450.742 83.0618 450.91 83.3738 451.042C83.6978 451.162 84.1418 451.3 84.7058 451.456C85.4138 451.648 85.9898 451.84 86.4338 452.032C86.8778 452.212 87.2558 452.488 87.5678 452.86C87.8918 453.232 88.0598 453.718 88.0718 454.318C88.0718 454.858 87.9218 455.344 87.6218 455.776C87.3218 456.208 86.8958 456.55 86.3438 456.802C85.8038 457.042 85.1798 457.162 84.4718 457.162ZM91.23 445.534C90.918 445.534 90.654 445.426 90.438 445.21C90.222 444.994 90.114 444.73 90.114 444.418C90.114 444.106 90.222 443.842 90.438 443.626C90.654 443.41 90.918 443.302 91.23 443.302C91.53 443.302 91.782 443.41 91.986 443.626C92.202 443.842 92.31 444.106 92.31 444.418C92.31 444.73 92.202 444.994 91.986 445.21C91.782 445.426 91.53 445.534 91.23 445.534ZM92.022 447.136V457H90.384V447.136H92.022ZM96.4517 448.972C96.7877 448.384 97.2797 447.904 97.9277 447.532C98.5757 447.16 99.3137 446.974 100.142 446.974C101.03 446.974 101.828 447.184 102.536 447.604C103.244 448.024 103.802 448.618 104.21 449.386C104.618 450.142 104.822 451.024 104.822 452.032C104.822 453.028 104.618 453.916 104.21 454.696C103.802 455.476 103.238 456.082 102.518 456.514C101.81 456.946 101.018 457.162 100.142 457.162C99.2897 457.162 98.5397 456.976 97.8917 456.604C97.2557 456.232 96.7757 455.758 96.4517 455.182V457H94.8137V443.68H96.4517V448.972ZM103.148 452.032C103.148 451.288 102.998 450.64 102.698 450.088C102.398 449.536 101.99 449.116 101.474 448.828C100.97 448.54 100.412 448.396 99.7997 448.396C99.1997 448.396 98.6417 448.546 98.1257 448.846C97.6217 449.134 97.2137 449.56 96.9017 450.124C96.6017 450.676 96.4517 451.318 96.4517 452.05C96.4517 452.794 96.6017 453.448 96.9017 454.012C97.2137 454.564 97.6217 454.99 98.1257 455.29C98.6417 455.578 99.1997 455.722 99.7997 455.722C100.412 455.722 100.97 455.578 101.474 455.29C101.99 454.99 102.398 454.564 102.698 454.012C102.998 453.448 103.148 452.788 103.148 452.032ZM107.824 445.534C107.512 445.534 107.248 445.426 107.032 445.21C106.816 444.994 106.708 444.73 106.708 444.418C106.708 444.106 106.816 443.842 107.032 443.626C107.248 443.41 107.512 443.302 107.824 443.302C108.124 443.302 108.376 443.41 108.58 443.626C108.796 443.842 108.904 444.106 108.904 444.418C108.904 444.73 108.796 444.994 108.58 445.21C108.376 445.426 108.124 445.534 107.824 445.534ZM108.616 447.136V457H106.978V447.136H108.616ZM113.045 443.68V457H111.407V443.68H113.045ZM116.683 445.534C116.371 445.534 116.107 445.426 115.891 445.21C115.675 444.994 115.567 444.73 115.567 444.418C115.567 444.106 115.675 443.842 115.891 443.626C116.107 443.41 116.371 443.302 116.683 443.302C116.983 443.302 117.235 443.41 117.439 443.626C117.655 443.842 117.763 444.106 117.763 444.418C117.763 444.73 117.655 444.994 117.439 445.21C117.235 445.426 116.983 445.534 116.683 445.534ZM117.475 447.136V457H115.837V447.136H117.475ZM122.265 448.486V454.3C122.265 454.78 122.367 455.122 122.571 455.326C122.775 455.518 123.129 455.614 123.633 455.614H124.839V457H123.363C122.451 457 121.767 456.79 121.311 456.37C120.855 455.95 120.627 455.26 120.627 454.3V448.486H119.349V447.136H120.627V444.652H122.265V447.136H124.839V448.486H122.265ZM135.32 447.136L129.38 461.644H127.688L129.632 456.892L125.654 447.136H127.472L130.568 455.128L133.628 447.136H135.32Z" fill="white"/>
<path d="M149.684 445.48V443.986H153.068V457H151.412V445.48H149.684ZM155.882 450.358C155.882 448.294 156.218 446.686 156.89 445.534C157.562 444.37 158.738 443.788 160.418 443.788C162.086 443.788 163.256 444.37 163.928 445.534C164.6 446.686 164.936 448.294 164.936 450.358C164.936 452.458 164.6 454.09 163.928 455.254C163.256 456.418 162.086 457 160.418 457C158.738 457 157.562 456.418 156.89 455.254C156.218 454.09 155.882 452.458 155.882 450.358ZM163.316 450.358C163.316 449.314 163.244 448.432 163.1 447.712C162.968 446.98 162.686 446.392 162.254 445.948C161.834 445.504 161.222 445.282 160.418 445.282C159.602 445.282 158.978 445.504 158.546 445.948C158.126 446.392 157.844 446.98 157.7 447.712C157.568 448.432 157.502 449.314 157.502 450.358C157.502 451.438 157.568 452.344 157.7 453.076C157.844 453.808 158.126 454.396 158.546 454.84C158.978 455.284 159.602 455.506 160.418 455.506C161.222 455.506 161.834 455.284 162.254 454.84C162.686 454.396 162.968 453.808 163.1 453.076C163.244 452.344 163.316 451.438 163.316 450.358ZM172.962 457L169.092 452.644V457H167.454V443.68H169.092V451.51L172.89 447.136H175.176L170.532 452.05L175.194 457H172.962ZM188.58 446.956C189.348 446.956 190.032 447.118 190.632 447.442C191.232 447.754 191.706 448.228 192.054 448.864C192.402 449.5 192.576 450.274 192.576 451.186V457H190.956V451.42C190.956 450.436 190.71 449.686 190.218 449.17C189.738 448.642 189.084 448.378 188.256 448.378C187.404 448.378 186.726 448.654 186.222 449.206C185.718 449.746 185.466 450.532 185.466 451.564V457H183.846V451.42C183.846 450.436 183.6 449.686 183.108 449.17C182.628 448.642 181.974 448.378 181.146 448.378C180.294 448.378 179.616 448.654 179.112 449.206C178.608 449.746 178.356 450.532 178.356 451.564V457H176.718V447.136H178.356V448.558C178.68 448.042 179.112 447.646 179.652 447.37C180.204 447.094 180.81 446.956 181.47 446.956C182.298 446.956 183.03 447.142 183.666 447.514C184.302 447.886 184.776 448.432 185.088 449.152C185.364 448.456 185.82 447.916 186.456 447.532C187.092 447.148 187.8 446.956 188.58 446.956Z" fill="white"/>
<line x1="224.5" y1="441" x2="224.5" y2="460" stroke="white"/>
<path d="M267 454.28V447.5C267 447.235 266.895 446.98 266.707 446.793C266.52 446.605 266.265 446.5 266 446.5C265.735 446.5 265.48 446.605 265.293 446.793C265.105 446.98 265 447.235 265 447.5V454.28C264.698 454.455 264.446 454.705 264.271 455.007C264.096 455.309 264.002 455.651 264 456C264 456.53 264.211 457.039 264.586 457.414C264.961 457.789 265.47 458 266 458C266.53 458 267.039 457.789 267.414 457.414C267.789 457.039 268 456.53 268 456C267.998 455.651 267.904 455.309 267.729 455.007C267.554 454.705 267.302 454.455 267 454.28ZM270.5 452V444.5C270.5 443.307 270.026 442.162 269.182 441.318C268.338 440.474 267.193 440 266 440C264.807 440 263.662 440.474 262.818 441.318C261.974 442.162 261.5 443.307 261.5 444.5V452C260.809 452.783 260.334 453.733 260.123 454.756C259.911 455.779 259.971 456.84 260.295 457.833C260.619 458.826 261.197 459.717 261.972 460.418C262.746 461.119 263.69 461.606 264.71 461.83C265.134 461.927 265.566 461.984 266 462C267.161 462.005 268.298 461.674 269.274 461.046C270.25 460.418 271.023 459.521 271.499 458.462C271.976 457.404 272.135 456.23 271.957 455.083C271.78 453.936 271.274 452.865 270.5 452V452ZM268.5 459.07C267.704 459.775 266.661 460.136 265.6 460.072C264.538 460.008 263.545 459.526 262.84 458.73C262.135 457.934 261.774 456.891 261.838 455.83C261.902 454.768 262.384 453.775 263.18 453.07C263.274 452.977 263.35 452.867 263.401 452.745C263.453 452.623 263.479 452.492 263.48 452.36V444.5C263.48 443.837 263.743 443.201 264.212 442.732C264.681 442.263 265.317 442 265.98 442C266.643 442 267.279 442.263 267.748 442.732C268.217 443.201 268.48 443.837 268.48 444.5V452.44C268.481 452.572 268.507 452.703 268.559 452.825C268.61 452.947 268.686 453.057 268.78 453.15C269.189 453.545 269.509 454.022 269.718 454.551C269.928 455.079 270.023 455.646 269.996 456.213C269.97 456.781 269.823 457.337 269.565 457.843C269.307 458.349 268.944 458.795 268.5 459.15V459.07Z" fill="white"/>
<path d="M288.478 444.454V445.786H283.024V450.016H287.452V451.348H283.024V457H281.386V444.454H288.478ZM299.456 451.69C299.456 452.002 299.438 452.332 299.402 452.68H291.518C291.578 453.652 291.908 454.414 292.508 454.966C293.12 455.506 293.858 455.776 294.722 455.776C295.43 455.776 296.018 455.614 296.486 455.29C296.966 454.954 297.302 454.51 297.494 453.958H299.258C298.994 454.906 298.466 455.68 297.674 456.28C296.882 456.868 295.898 457.162 294.722 457.162C293.786 457.162 292.946 456.952 292.202 456.532C291.47 456.112 290.894 455.518 290.474 454.75C290.054 453.97 289.844 453.07 289.844 452.05C289.844 451.03 290.048 450.136 290.456 449.368C290.864 448.6 291.434 448.012 292.166 447.604C292.91 447.184 293.762 446.974 294.722 446.974C295.658 446.974 296.486 447.178 297.206 447.586C297.926 447.994 298.478 448.558 298.862 449.278C299.258 449.986 299.456 450.79 299.456 451.69ZM297.764 451.348C297.764 450.724 297.626 450.19 297.35 449.746C297.074 449.29 296.696 448.948 296.216 448.72C295.748 448.48 295.226 448.36 294.65 448.36C293.822 448.36 293.114 448.624 292.526 449.152C291.95 449.68 291.62 450.412 291.536 451.348H297.764ZM310.618 451.69C310.618 452.002 310.6 452.332 310.564 452.68H302.68C302.74 453.652 303.07 454.414 303.67 454.966C304.282 455.506 305.02 455.776 305.884 455.776C306.592 455.776 307.18 455.614 307.648 455.29C308.128 454.954 308.464 454.51 308.656 453.958H310.42C310.156 454.906 309.628 455.68 308.836 456.28C308.044 456.868 307.06 457.162 305.884 457.162C304.948 457.162 304.108 456.952 303.364 456.532C302.632 456.112 302.056 455.518 301.636 454.75C301.216 453.97 301.006 453.07 301.006 452.05C301.006 451.03 301.21 450.136 301.618 449.368C302.026 448.6 302.596 448.012 303.328 447.604C304.072 447.184 304.924 446.974 305.884 446.974C306.82 446.974 307.648 447.178 308.368 447.586C309.088 447.994 309.64 448.558 310.024 449.278C310.42 449.986 310.618 450.79 310.618 451.69ZM308.926 451.348C308.926 450.724 308.788 450.19 308.512 449.746C308.236 449.29 307.858 448.948 307.378 448.72C306.91 448.48 306.388 448.36 305.812 448.36C304.984 448.36 304.276 448.624 303.688 449.152C303.112 449.68 302.782 450.412 302.698 451.348H308.926ZM314.419 443.68V457H312.781V443.68H314.419ZM320.702 457.162C319.946 457.162 319.268 457.036 318.668 456.784C318.068 456.52 317.594 456.16 317.246 455.704C316.898 455.236 316.706 454.702 316.67 454.102H318.362C318.41 454.594 318.638 454.996 319.046 455.308C319.466 455.62 320.012 455.776 320.684 455.776C321.308 455.776 321.8 455.638 322.16 455.362C322.52 455.086 322.7 454.738 322.7 454.318C322.7 453.886 322.508 453.568 322.124 453.364C321.74 453.148 321.146 452.938 320.342 452.734C319.61 452.542 319.01 452.35 318.542 452.158C318.086 451.954 317.69 451.66 317.354 451.276C317.03 450.88 316.868 450.364 316.868 449.728C316.868 449.224 317.018 448.762 317.318 448.342C317.618 447.922 318.044 447.592 318.596 447.352C319.148 447.1 319.778 446.974 320.486 446.974C321.578 446.974 322.46 447.25 323.132 447.802C323.804 448.354 324.164 449.11 324.212 450.07H322.574C322.538 449.554 322.328 449.14 321.944 448.828C321.572 448.516 321.068 448.36 320.432 448.36C319.844 448.36 319.376 448.486 319.028 448.738C318.68 448.99 318.506 449.32 318.506 449.728C318.506 450.052 318.608 450.322 318.812 450.538C319.028 450.742 319.292 450.91 319.604 451.042C319.928 451.162 320.372 451.3 320.936 451.456C321.644 451.648 322.22 451.84 322.664 452.032C323.108 452.212 323.486 452.488 323.798 452.86C324.122 453.232 324.29 453.718 324.302 454.318C324.302 454.858 324.152 455.344 323.852 455.776C323.552 456.208 323.126 456.55 322.574 456.802C322.034 457.042 321.41 457.162 320.702 457.162ZM333.051 443.68V457H331.413V443.68H333.051ZM336.689 445.534C336.377 445.534 336.113 445.426 335.897 445.21C335.681 444.994 335.573 444.73 335.573 444.418C335.573 444.106 335.681 443.842 335.897 443.626C336.113 443.41 336.377 443.302 336.689 443.302C336.989 443.302 337.241 443.41 337.445 443.626C337.661 443.842 337.769 444.106 337.769 444.418C337.769 444.73 337.661 444.994 337.445 445.21C337.241 445.426 336.989 445.534 336.689 445.534ZM337.481 447.136V457H335.843V447.136H337.481ZM345.781 457L341.911 452.644V457H340.273V443.68H341.911V451.51L345.709 447.136H347.995L343.351 452.05L348.013 457H345.781ZM358.536 451.69C358.536 452.002 358.518 452.332 358.482 452.68H350.598C350.658 453.652 350.988 454.414 351.588 454.966C352.2 455.506 352.938 455.776 353.802 455.776C354.51 455.776 355.098 455.614 355.566 455.29C356.046 454.954 356.382 454.51 356.574 453.958H358.338C358.074 454.906 357.546 455.68 356.754 456.28C355.962 456.868 354.978 457.162 353.802 457.162C352.866 457.162 352.026 456.952 351.282 456.532C350.55 456.112 349.974 455.518 349.554 454.75C349.134 453.97 348.924 453.07 348.924 452.05C348.924 451.03 349.128 450.136 349.536 449.368C349.944 448.6 350.514 448.012 351.246 447.604C351.99 447.184 352.842 446.974 353.802 446.974C354.738 446.974 355.566 447.178 356.286 447.586C357.006 447.994 357.558 448.558 357.942 449.278C358.338 449.986 358.536 450.79 358.536 451.69ZM356.844 451.348C356.844 450.724 356.706 450.19 356.43 449.746C356.154 449.29 355.776 448.948 355.296 448.72C354.828 448.48 354.306 448.36 353.73 448.36C352.902 448.36 352.194 448.624 351.606 449.152C351.03 449.68 350.7 450.412 350.616 451.348H356.844Z" fill="white"/>
<path d="M368.684 445.48V443.986H372.068V457H370.412V445.48H368.684ZM374.882 450.358C374.882 448.294 375.218 446.686 375.89 445.534C376.562 444.37 377.738 443.788 379.418 443.788C381.086 443.788 382.256 444.37 382.928 445.534C383.6 446.686 383.936 448.294 383.936 450.358C383.936 452.458 383.6 454.09 382.928 455.254C382.256 456.418 381.086 457 379.418 457C377.738 457 376.562 456.418 375.89 455.254C375.218 454.09 374.882 452.458 374.882 450.358ZM382.316 450.358C382.316 449.314 382.244 448.432 382.1 447.712C381.968 446.98 381.686 446.392 381.254 445.948C380.834 445.504 380.222 445.282 379.418 445.282C378.602 445.282 377.978 445.504 377.546 445.948C377.126 446.392 376.844 446.98 376.7 447.712C376.568 448.432 376.502 449.314 376.502 450.358C376.502 451.438 376.568 452.344 376.7 453.076C376.844 453.808 377.126 454.396 377.546 454.84C377.978 455.284 378.602 455.506 379.418 455.506C380.222 455.506 380.834 455.284 381.254 454.84C381.686 454.396 381.968 453.808 382.1 453.076C382.244 452.344 382.316 451.438 382.316 450.358ZM393.258 457L388.092 451.276V457H386.454V444.454H388.092V450.268L393.276 444.454H395.346L389.658 450.736L395.4 457H393.258ZM409.956 444.544V457H408.318V447.712L404.178 457H403.026L398.868 447.694V457H397.23V444.544H398.994L403.602 454.84L408.21 444.544H409.956Z" fill="white"/>
<path d="M38.72 498.65C38.9156 498.707 39.1036 498.788 39.28 498.89C39.8998 499.26 40.6082 499.455 41.33 499.455C42.0518 499.455 42.7602 499.26 43.38 498.89C43.7705 498.669 44.2114 498.553 44.66 498.553C45.1086 498.553 45.5495 498.669 45.94 498.89C46.5673 499.249 47.2774 499.437 48 499.437C48.7226 499.437 49.4327 499.249 50.06 498.89C50.4505 498.669 50.8914 498.553 51.34 498.553C51.7886 498.553 52.2295 498.669 52.62 498.89C53.2537 499.252 53.9701 499.445 54.7 499.45C55.4052 499.449 56.0966 499.255 56.7 498.89C56.8765 498.788 57.0645 498.707 57.26 498.65C57.5146 498.576 57.7293 498.403 57.8568 498.171C57.9843 497.938 58.0143 497.665 57.94 497.41C57.8657 497.155 57.6934 496.941 57.4608 496.813C57.2283 496.686 56.9546 496.656 56.7 496.73C56.3494 496.838 56.0135 496.989 55.7 497.18C55.3814 497.366 55.019 497.464 54.65 497.464C54.281 497.464 53.9186 497.366 53.6 497.18C52.9067 496.791 52.125 496.587 51.33 496.587C50.535 496.587 49.7534 496.791 49.06 497.18C48.7381 497.367 48.3723 497.466 48 497.466C47.6277 497.466 47.262 497.367 46.94 497.18C46.2467 496.791 45.465 496.587 44.67 496.587C43.875 496.587 43.0934 496.791 42.4 497.18C42.0814 497.366 41.719 497.464 41.35 497.464C40.981 497.464 40.6186 497.366 40.3 497.18C39.9865 496.989 39.6506 496.838 39.3 496.73C39.0454 496.656 38.7717 496.686 38.5392 496.813C38.3066 496.941 38.1343 497.155 38.06 497.41C37.9857 497.665 38.0157 497.938 38.1432 498.171C38.2707 498.403 38.4854 498.576 38.74 498.65H38.72ZM56.72 506.73C56.3694 506.838 56.0335 506.989 55.72 507.18C55.4014 507.366 55.039 507.464 54.67 507.464C54.301 507.464 53.9386 507.366 53.62 507.18C52.9267 506.791 52.145 506.587 51.35 506.587C50.555 506.587 49.7734 506.791 49.08 507.18C48.7581 507.367 48.3923 507.466 48.02 507.466C47.6477 507.466 47.282 507.367 46.96 507.18C46.2667 506.791 45.485 506.587 44.69 506.587C43.895 506.587 43.1134 506.791 42.42 507.18C42.1014 507.366 41.739 507.464 41.37 507.464C41.001 507.464 40.6386 507.366 40.32 507.18C40.0065 506.989 39.6706 506.838 39.32 506.73C39.1939 506.693 39.0619 506.682 38.9313 506.696C38.8008 506.71 38.6743 506.75 38.5592 506.813C38.444 506.876 38.3424 506.962 38.2602 507.064C38.178 507.166 38.1168 507.284 38.08 507.41C38.0432 507.536 38.0317 507.668 38.0459 507.799C38.0602 507.929 38.1001 508.056 38.1632 508.171C38.2263 508.286 38.3115 508.388 38.4139 508.47C38.5163 508.552 38.6339 508.613 38.76 508.65C38.9556 508.707 39.1436 508.788 39.32 508.89C39.9398 509.26 40.6482 509.455 41.37 509.455C42.0918 509.455 42.8002 509.26 43.42 508.89C43.8105 508.669 44.2514 508.553 44.7 508.553C45.1486 508.553 45.5895 508.669 45.98 508.89C46.6073 509.249 47.3174 509.437 48.04 509.437C48.7626 509.437 49.4727 509.249 50.1 508.89C50.4905 508.669 50.9314 508.553 51.38 508.553C51.8286 508.553 52.2695 508.669 52.66 508.89C53.2937 509.252 54.0101 509.445 54.74 509.45C55.4452 509.449 56.1366 509.255 56.74 508.89C56.9165 508.788 57.1045 508.707 57.3 508.65C57.5546 508.576 57.7693 508.403 57.8968 508.171C58.0243 507.938 58.0543 507.665 57.98 507.41C57.9057 507.155 57.7334 506.941 57.5008 506.813C57.2683 506.686 56.9946 506.656 56.74 506.73H56.72ZM56.72 501.73C56.3694 501.838 56.0335 501.989 55.72 502.18C55.4014 502.366 55.039 502.464 54.67 502.464C54.301 502.464 53.9386 502.366 53.62 502.18C52.9267 501.791 52.145 501.587 51.35 501.587C50.555 501.587 49.7734 501.791 49.08 502.18C48.7581 502.367 48.3923 502.466 48.02 502.466C47.6477 502.466 47.282 502.367 46.96 502.18C46.2667 501.791 45.485 501.587 44.69 501.587C43.895 501.587 43.1134 501.791 42.42 502.18C42.1014 502.366 41.739 502.464 41.37 502.464C41.001 502.464 40.6386 502.366 40.32 502.18C40.0065 501.989 39.6706 501.838 39.32 501.73C39.1891 501.681 39.0492 501.659 38.9095 501.667C38.7698 501.675 38.6333 501.712 38.5088 501.777C38.3844 501.841 38.2748 501.93 38.1872 502.039C38.0995 502.148 38.0358 502.275 38 502.41C37.9632 502.536 37.9517 502.668 37.9659 502.799C37.9802 502.929 38.0201 503.056 38.0832 503.171C38.1463 503.286 38.2315 503.388 38.3339 503.47C38.4363 503.552 38.5539 503.613 38.68 503.65C38.8756 503.707 39.0636 503.788 39.24 503.89C39.8598 504.26 40.5682 504.455 41.29 504.455C42.0118 504.455 42.7202 504.26 43.34 503.89C43.7305 503.669 44.1714 503.553 44.62 503.553C45.0686 503.553 45.5095 503.669 45.9 503.89C46.5273 504.249 47.2374 504.437 47.96 504.437C48.6826 504.437 49.3927 504.249 50.02 503.89C50.4105 503.669 50.8514 503.553 51.3 503.553C51.7486 503.553 52.1895 503.669 52.58 503.89C53.2137 504.252 53.9301 504.445 54.66 504.45C55.3652 504.449 56.0566 504.255 56.66 503.89C56.8365 503.788 57.0245 503.707 57.22 503.65C57.4746 503.576 57.6893 503.403 57.8168 503.171C57.9443 502.938 57.9743 502.665 57.9 502.41C57.8257 502.155 57.6534 501.941 57.4208 501.813C57.1883 501.686 56.9146 501.656 56.66 501.73H56.72Z" fill="white"/>
<path d="M75.052 496.454V509H73.414V503.312H67.024V509H65.386V496.454H67.024V501.962H73.414V496.454H75.052ZM86.5969 499.136V509H84.9589V507.542C84.6469 508.046 84.2089 508.442 83.6449 508.73C83.0929 509.006 82.4809 509.144 81.8089 509.144C81.0409 509.144 80.3509 508.988 79.7389 508.676C79.1269 508.352 78.6409 507.872 78.2809 507.236C77.9329 506.6 77.7589 505.826 77.7589 504.914V499.136H79.3789V504.698C79.3789 505.67 79.6249 506.42 80.1169 506.948C80.6089 507.464 81.2809 507.722 82.1329 507.722C83.0089 507.722 83.6989 507.452 84.2029 506.912C84.7069 506.372 84.9589 505.586 84.9589 504.554V499.136H86.5969ZM101.225 498.956C101.993 498.956 102.677 499.118 103.277 499.442C103.877 499.754 104.351 500.228 104.699 500.864C105.047 501.5 105.221 502.274 105.221 503.186V509H103.601V503.42C103.601 502.436 103.355 501.686 102.863 501.17C102.383 500.642 101.729 500.378 100.901 500.378C100.049 500.378 99.3706 500.654 98.8666 501.206C98.3626 501.746 98.1106 502.532 98.1106 503.564V509H96.4906V503.42C96.4906 502.436 96.2446 501.686 95.7526 501.17C95.2726 500.642 94.6186 500.378 93.7906 500.378C92.9386 500.378 92.2606 500.654 91.7566 501.206C91.2526 501.746 91.0006 502.532 91.0006 503.564V509H89.3626V499.136H91.0006V500.558C91.3246 500.042 91.7566 499.646 92.2966 499.37C92.8486 499.094 93.4546 498.956 94.1146 498.956C94.9426 498.956 95.6746 499.142 96.3106 499.514C96.9466 499.886 97.4206 500.432 97.7326 501.152C98.0086 500.456 98.4646 499.916 99.1006 499.532C99.7366 499.148 100.445 498.956 101.225 498.956ZM108.753 497.534C108.441 497.534 108.177 497.426 107.961 497.21C107.745 496.994 107.637 496.73 107.637 496.418C107.637 496.106 107.745 495.842 107.961 495.626C108.177 495.41 108.441 495.302 108.753 495.302C109.053 495.302 109.305 495.41 109.509 495.626C109.725 495.842 109.833 496.106 109.833 496.418C109.833 496.73 109.725 496.994 109.509 497.21C109.305 497.426 109.053 497.534 108.753 497.534ZM109.545 499.136V509H107.907V499.136H109.545ZM111.725 504.032C111.725 503.024 111.929 502.142 112.337 501.386C112.745 500.618 113.303 500.024 114.011 499.604C114.731 499.184 115.535 498.974 116.423 498.974C117.191 498.974 117.905 499.154 118.565 499.514C119.225 499.862 119.729 500.324 120.077 500.9V495.68H121.733V509H120.077V507.146C119.753 507.734 119.273 508.22 118.637 508.604C118.001 508.976 117.257 509.162 116.405 509.162C115.529 509.162 114.731 508.946 114.011 508.514C113.303 508.082 112.745 507.476 112.337 506.696C111.929 505.916 111.725 505.028 111.725 504.032ZM120.077 504.05C120.077 503.306 119.927 502.658 119.627 502.106C119.327 501.554 118.919 501.134 118.403 500.846C117.899 500.546 117.341 500.396 116.729 500.396C116.117 500.396 115.559 500.54 115.055 500.828C114.551 501.116 114.149 501.536 113.849 502.088C113.549 502.64 113.399 503.288 113.399 504.032C113.399 504.788 113.549 505.448 113.849 506.012C114.149 506.564 114.551 506.99 115.055 507.29C115.559 507.578 116.117 507.722 116.729 507.722C117.341 507.722 117.899 507.578 118.403 507.29C118.919 506.99 119.327 506.564 119.627 506.012C119.927 505.448 120.077 504.794 120.077 504.05ZM125.347 497.534C125.035 497.534 124.771 497.426 124.555 497.21C124.339 496.994 124.231 496.73 124.231 496.418C124.231 496.106 124.339 495.842 124.555 495.626C124.771 495.41 125.035 495.302 125.347 495.302C125.647 495.302 125.899 495.41 126.103 495.626C126.319 495.842 126.427 496.106 126.427 496.418C126.427 496.73 126.319 496.994 126.103 497.21C125.899 497.426 125.647 497.534 125.347 497.534ZM126.139 499.136V509H124.501V499.136H126.139ZM130.929 500.486V506.3C130.929 506.78 131.031 507.122 131.235 507.326C131.439 507.518 131.793 507.614 132.297 507.614H133.503V509H132.027C131.115 509 130.431 508.79 129.975 508.37C129.519 507.95 129.291 507.26 129.291 506.3V500.486H128.013V499.136H129.291V496.652H130.929V499.136H133.503V500.486H130.929ZM143.984 499.136L138.044 513.644H136.352L138.296 508.892L134.318 499.136H136.136L139.232 507.128L142.292 499.136H143.984Z" fill="white"/>
<path d="M150.684 497.48V495.986H154.068V509H152.412V497.48H150.684ZM156.882 502.358C156.882 500.294 157.218 498.686 157.89 497.534C158.562 496.37 159.738 495.788 161.418 495.788C163.086 495.788 164.256 496.37 164.928 497.534C165.6 498.686 165.936 500.294 165.936 502.358C165.936 504.458 165.6 506.09 164.928 507.254C164.256 508.418 163.086 509 161.418 509C159.738 509 158.562 508.418 157.89 507.254C157.218 506.09 156.882 504.458 156.882 502.358ZM164.316 502.358C164.316 501.314 164.244 500.432 164.1 499.712C163.968 498.98 163.686 498.392 163.254 497.948C162.834 497.504 162.222 497.282 161.418 497.282C160.602 497.282 159.978 497.504 159.546 497.948C159.126 498.392 158.844 498.98 158.7 499.712C158.568 500.432 158.502 501.314 158.502 502.358C158.502 503.438 158.568 504.344 158.7 505.076C158.844 505.808 159.126 506.396 159.546 506.84C159.978 507.284 160.602 507.506 161.418 507.506C162.222 507.506 162.834 507.284 163.254 506.84C163.686 506.396 163.968 505.808 164.1 505.076C164.244 504.344 164.316 503.438 164.316 502.358ZM175.258 509L170.092 503.276V509H168.454V496.454H170.092V502.268L175.276 496.454H177.346L171.658 502.736L177.4 509H175.258ZM191.956 496.544V509H190.318V499.712L186.178 509H185.026L180.868 499.694V509H179.23V496.544H180.994L185.602 506.84L190.21 496.544H191.956Z" fill="white"/>
<line x1="224.5" y1="493" x2="224.5" y2="512" stroke="#FEFEFE"/>
<path d="M257.5 500C257.698 500 257.891 499.941 258.056 499.831C258.22 499.722 258.348 499.565 258.424 499.383C258.5 499.2 258.519 498.999 258.481 498.805C258.442 498.611 258.347 498.433 258.207 498.293C258.067 498.153 257.889 498.058 257.695 498.019C257.501 497.981 257.3 498 257.117 498.076C256.935 498.152 256.778 498.28 256.669 498.444C256.559 498.609 256.5 498.802 256.5 499C256.5 499.265 256.605 499.52 256.793 499.707C256.98 499.895 257.235 500 257.5 500ZM261.5 500H268.5C269.296 500 270.059 499.684 270.621 499.121C271.184 498.559 271.5 497.796 271.5 497C271.5 496.204 271.184 495.441 270.621 494.879C270.059 494.316 269.296 494 268.5 494C267.974 494.002 267.457 494.14 267 494.4C266.885 494.465 266.785 494.553 266.704 494.657C266.624 494.761 266.564 494.881 266.53 495.008C266.495 495.135 266.487 495.268 266.504 495.399C266.521 495.53 266.564 495.656 266.63 495.77C266.696 495.884 266.784 495.983 266.889 496.063C266.994 496.143 267.113 496.201 267.24 496.234C267.368 496.268 267.5 496.276 267.631 496.258C267.761 496.24 267.886 496.197 268 496.13C268.154 496.047 268.325 496.003 268.5 496C268.765 496 269.02 496.105 269.207 496.293C269.395 496.48 269.5 496.735 269.5 497C269.5 497.265 269.395 497.52 269.207 497.707C269.02 497.895 268.765 498 268.5 498H261.5C261.235 498 260.98 498.105 260.793 498.293C260.605 498.48 260.5 498.735 260.5 499C260.5 499.265 260.605 499.52 260.793 499.707C260.98 499.895 261.235 500 261.5 500ZM257.5 504H264.5C264.765 504 265.02 503.895 265.207 503.707C265.395 503.52 265.5 503.265 265.5 503C265.5 502.735 265.395 502.48 265.207 502.293C265.02 502.105 264.765 502 264.5 502H257.5C257.235 502 256.98 502.105 256.793 502.293C256.605 502.48 256.5 502.735 256.5 503C256.5 503.265 256.605 503.52 256.793 503.707C256.98 503.895 257.235 504 257.5 504V504ZM274.5 500C274.698 500 274.891 499.941 275.056 499.831C275.22 499.722 275.348 499.565 275.424 499.383C275.5 499.2 275.519 498.999 275.481 498.805C275.442 498.611 275.347 498.433 275.207 498.293C275.067 498.153 274.889 498.058 274.695 498.019C274.501 497.981 274.3 498 274.117 498.076C273.935 498.152 273.778 498.28 273.669 498.444C273.559 498.609 273.5 498.802 273.5 499C273.5 499.265 273.605 499.52 273.793 499.707C273.98 499.895 274.235 500 274.5 500ZM272.5 502H268.5C268.235 502 267.98 502.105 267.793 502.293C267.605 502.48 267.5 502.735 267.5 503C267.5 503.265 267.605 503.52 267.793 503.707C267.98 503.895 268.235 504 268.5 504H272.5C272.765 504 273.02 504.105 273.207 504.293C273.395 504.48 273.5 504.735 273.5 505C273.5 505.265 273.395 505.52 273.207 505.707C273.02 505.895 272.765 506 272.5 506C272.235 506 271.98 506.105 271.793 506.293C271.605 506.48 271.5 506.735 271.5 507C271.5 507.265 271.605 507.52 271.793 507.707C271.98 507.895 272.235 508 272.5 508C273.296 508 274.059 507.684 274.621 507.121C275.184 506.559 275.5 505.796 275.5 505C275.5 504.204 275.184 503.441 274.621 502.879C274.059 502.316 273.296 502 272.5 502V502ZM266.5 506H262.5C262.235 506 261.98 506.105 261.793 506.293C261.605 506.48 261.5 506.735 261.5 507C261.5 507.265 261.605 507.52 261.793 507.707C261.98 507.895 262.235 508 262.5 508H266.5C266.765 508 267.02 508.105 267.207 508.293C267.395 508.48 267.5 508.735 267.5 509C267.5 509.265 267.395 509.52 267.207 509.707C267.02 509.895 266.765 510 266.5 510C266.325 509.997 266.154 509.953 266 509.87C265.886 509.798 265.759 509.749 265.626 509.727C265.493 509.705 265.357 509.711 265.226 509.743C265.095 509.775 264.971 509.833 264.864 509.914C264.756 509.995 264.665 510.097 264.598 510.213C264.53 510.33 264.487 510.459 264.471 510.593C264.455 510.727 264.466 510.863 264.503 510.993C264.541 511.122 264.604 511.243 264.689 511.347C264.775 511.451 264.88 511.537 265 511.6C265.457 511.86 265.974 511.998 266.5 512C267.296 512 268.059 511.684 268.621 511.121C269.184 510.559 269.5 509.796 269.5 509C269.5 508.204 269.184 507.441 268.621 506.879C268.059 506.316 267.296 506 266.5 506V506ZM258.5 506H257.5C257.235 506 256.98 506.105 256.793 506.293C256.605 506.48 256.5 506.735 256.5 507C256.5 507.265 256.605 507.52 256.793 507.707C256.98 507.895 257.235 508 257.5 508H258.5C258.765 508 259.02 507.895 259.207 507.707C259.395 507.52 259.5 507.265 259.5 507C259.5 506.735 259.395 506.48 259.207 506.293C259.02 506.105 258.765 506 258.5 506Z" fill="white"/>
<path d="M299.154 496.454L295.518 509H293.682L290.766 498.902L287.742 509L285.924 509.018L282.414 496.454H284.16L286.896 507.092L289.92 496.454H291.756L294.636 507.056L297.39 496.454H299.154ZM301.793 497.534C301.481 497.534 301.217 497.426 301.001 497.21C300.785 496.994 300.677 496.73 300.677 496.418C300.677 496.106 300.785 495.842 301.001 495.626C301.217 495.41 301.481 495.302 301.793 495.302C302.093 495.302 302.345 495.41 302.549 495.626C302.765 495.842 302.873 496.106 302.873 496.418C302.873 496.73 302.765 496.994 302.549 497.21C302.345 497.426 302.093 497.534 301.793 497.534ZM302.585 499.136V509H300.947V499.136H302.585ZM310.182 498.956C311.382 498.956 312.354 499.322 313.098 500.054C313.842 500.774 314.214 501.818 314.214 503.186V509H312.594V503.42C312.594 502.436 312.348 501.686 311.856 501.17C311.364 500.642 310.692 500.378 309.84 500.378C308.976 500.378 308.286 500.648 307.77 501.188C307.266 501.728 307.014 502.514 307.014 503.546V509H305.376V499.136H307.014V500.54C307.338 500.036 307.776 499.646 308.328 499.37C308.892 499.094 309.51 498.956 310.182 498.956ZM316.278 504.032C316.278 503.024 316.482 502.142 316.89 501.386C317.298 500.618 317.856 500.024 318.564 499.604C319.284 499.184 320.088 498.974 320.976 498.974C321.744 498.974 322.458 499.154 323.118 499.514C323.778 499.862 324.282 500.324 324.63 500.9V495.68H326.286V509H324.63V507.146C324.306 507.734 323.826 508.22 323.19 508.604C322.554 508.976 321.81 509.162 320.958 509.162C320.082 509.162 319.284 508.946 318.564 508.514C317.856 508.082 317.298 507.476 316.89 506.696C316.482 505.916 316.278 505.028 316.278 504.032ZM324.63 504.05C324.63 503.306 324.48 502.658 324.18 502.106C323.88 501.554 323.472 501.134 322.956 500.846C322.452 500.546 321.894 500.396 321.282 500.396C320.67 500.396 320.112 500.54 319.608 500.828C319.104 501.116 318.702 501.536 318.402 502.088C318.102 502.64 317.952 503.288 317.952 504.032C317.952 504.788 318.102 505.448 318.402 506.012C318.702 506.564 319.104 506.99 319.608 507.29C320.112 507.578 320.67 507.722 321.282 507.722C321.894 507.722 322.452 507.578 322.956 507.29C323.472 506.99 323.88 506.564 324.18 506.012C324.48 505.448 324.63 504.794 324.63 504.05Z" fill="white"/>
<path d="M368.684 497.48V495.986H372.068V509H370.412V497.48H368.684ZM374.882 502.358C374.882 500.294 375.218 498.686 375.89 497.534C376.562 496.37 377.738 495.788 379.418 495.788C381.086 495.788 382.256 496.37 382.928 497.534C383.6 498.686 383.936 500.294 383.936 502.358C383.936 504.458 383.6 506.09 382.928 507.254C382.256 508.418 381.086 509 379.418 509C377.738 509 376.562 508.418 375.89 507.254C375.218 506.09 374.882 504.458 374.882 502.358ZM382.316 502.358C382.316 501.314 382.244 500.432 382.1 499.712C381.968 498.98 381.686 498.392 381.254 497.948C380.834 497.504 380.222 497.282 379.418 497.282C378.602 497.282 377.978 497.504 377.546 497.948C377.126 498.392 376.844 498.98 376.7 499.712C376.568 500.432 376.502 501.314 376.502 502.358C376.502 503.438 376.568 504.344 376.7 505.076C376.844 505.808 377.126 506.396 377.546 506.84C377.978 507.284 378.602 507.506 379.418 507.506C380.222 507.506 380.834 507.284 381.254 506.84C381.686 506.396 381.968 505.808 382.1 505.076C382.244 504.344 382.316 503.438 382.316 502.358ZM393.258 509L388.092 503.276V509H386.454V496.454H388.092V502.268L393.276 496.454H395.346L389.658 502.736L395.4 509H393.258ZM409.956 496.544V509H408.318V499.712L404.178 509H403.026L398.868 499.694V509H397.23V496.544H398.994L403.602 506.84L408.21 496.544H409.956Z" fill="white"/>
<defs>
<filter id="filter0_b_3_58" x="-31.5" y="-32" width="514" height="639" filterUnits="userSpaceOnUse" color-interpolation-filters="sRGB">
<feFlood flood-opacity="0" result="BackgroundImageFix"/>
<feGaussianBlur in="BackgroundImageFix" stdDeviation="16"/>
<feComposite in2="SourceAlpha" operator="in" result="effect1_backgroundBlur_3_58"/>
<feBlend mode="normal" in="SourceGraphic" in2="effect1_backgroundBlur_3_58" result="shape"/>
</filter>
<clipPath id="clip0_3_58">
<rect width="22" height="22" fill="white" transform="translate(36 440)"/>
</clipPath>
</defs>
</svg>
