<svg width="451" height="575" viewBox="0 0 451 575" fill="none" xmlns="http://www.w3.org/2000/svg">
<g opacity="0.2" filter="url(#filter0_b_3_51)">
<rect x="0.5" width="450" height="575" rx="48" fill="black"/>
</g>
<rect x="160.5" y="195" width="130" height="130" rx="65" fill="white" fill-opacity="0.26"/>
<path d="M247.292 258.458H229.042V240.208C229.042 239.402 228.721 238.628 228.151 238.058C227.58 237.487 226.807 237.167 226 237.167C225.193 237.167 224.42 237.487 223.849 238.058C223.279 238.628 222.958 239.402 222.958 240.208V258.458H204.708C203.902 258.458 203.128 258.779 202.558 259.349C201.987 259.92 201.667 260.693 201.667 261.5C201.667 262.307 201.987 263.08 202.558 263.651C203.128 264.221 203.902 264.542 204.708 264.542H222.958V282.792C222.958 283.598 223.279 284.372 223.849 284.942C224.42 285.513 225.193 285.833 226 285.833C226.807 285.833 227.58 285.513 228.151 284.942C228.721 284.372 229.042 283.598 229.042 282.792V264.542H247.292C248.098 264.542 248.872 264.221 249.442 263.651C250.013 263.08 250.333 262.307 250.333 261.5C250.333 260.693 250.013 259.92 249.442 259.349C248.872 258.779 248.098 258.458 247.292 258.458Z" fill="white" fill-opacity="0.8"/>
<path d="M131.428 376.808H124.756L123.652 380H120.124L126.148 363.224H130.06L136.084 380H132.532L131.428 376.808ZM130.516 374.12L128.092 367.112L125.668 374.12H130.516ZM137.472 373.304C137.472 371.96 137.736 370.768 138.264 369.728C138.808 368.688 139.544 367.888 140.472 367.328C141.4 366.768 142.432 366.488 143.568 366.488C144.432 366.488 145.256 366.68 146.04 367.064C146.824 367.432 147.448 367.928 147.912 368.552V362.24H151.32V380H147.912V378.032C147.496 378.688 146.912 379.216 146.16 379.616C145.408 380.016 144.536 380.216 143.544 380.216C142.424 380.216 141.4 379.928 140.472 379.352C139.544 378.776 138.808 377.968 138.264 376.928C137.736 375.872 137.472 374.664 137.472 373.304ZM147.936 373.352C147.936 372.536 147.776 371.84 147.456 371.264C147.136 370.672 146.704 370.224 146.16 369.92C145.616 369.6 145.032 369.44 144.408 369.44C143.784 369.44 143.208 369.592 142.68 369.896C142.152 370.2 141.72 370.648 141.384 371.24C141.064 371.816 140.904 372.504 140.904 373.304C140.904 374.104 141.064 374.808 141.384 375.416C141.72 376.008 142.152 376.464 142.68 376.784C143.224 377.104 143.8 377.264 144.408 377.264C145.032 377.264 145.616 377.112 146.16 376.808C146.704 376.488 147.136 376.04 147.456 375.464C147.776 374.872 147.936 374.168 147.936 373.352ZM153.737 373.304C153.737 371.96 154.001 370.768 154.529 369.728C155.073 368.688 155.809 367.888 156.737 367.328C157.665 366.768 158.697 366.488 159.833 366.488C160.697 366.488 161.521 366.68 162.305 367.064C163.089 367.432 163.713 367.928 164.177 368.552V362.24H167.585V380H164.177V378.032C163.761 378.688 163.177 379.216 162.425 379.616C161.673 380.016 160.801 380.216 159.809 380.216C158.689 380.216 157.665 379.928 156.737 379.352C155.809 378.776 155.073 377.968 154.529 376.928C154.001 375.872 153.737 374.664 153.737 373.304ZM164.201 373.352C164.201 372.536 164.041 371.84 163.721 371.264C163.401 370.672 162.969 370.224 162.425 369.92C161.881 369.6 161.297 369.44 160.673 369.44C160.049 369.44 159.473 369.592 158.945 369.896C158.417 370.2 157.985 370.648 157.649 371.24C157.329 371.816 157.169 372.504 157.169 373.304C157.169 374.104 157.329 374.808 157.649 375.416C157.985 376.008 158.417 376.464 158.945 376.784C159.489 377.104 160.065 377.264 160.673 377.264C161.297 377.264 161.881 377.112 162.425 376.808C162.969 376.488 163.401 376.04 163.721 375.464C164.041 374.872 164.201 374.168 164.201 373.352ZM183.954 366.512C185.538 366.512 186.818 367.016 187.794 368.024C188.77 369.016 189.258 370.408 189.258 372.2V380H185.898V372.656C185.898 371.6 185.634 370.792 185.106 370.232C184.578 369.656 183.858 369.368 182.946 369.368C182.018 369.368 181.282 369.656 180.738 370.232C180.21 370.792 179.946 371.6 179.946 372.656V380H176.586V366.704H179.946V368.36C180.394 367.784 180.962 367.336 181.65 367.016C182.354 366.68 183.122 366.512 183.954 366.512ZM204.813 373.064C204.813 373.544 204.781 373.976 204.717 374.36H194.997C195.077 375.32 195.413 376.072 196.005 376.616C196.597 377.16 197.325 377.432 198.189 377.432C199.437 377.432 200.325 376.896 200.853 375.824H204.477C204.093 377.104 203.357 378.16 202.269 378.992C201.181 379.808 199.845 380.216 198.261 380.216C196.981 380.216 195.829 379.936 194.805 379.376C193.797 378.8 193.005 377.992 192.429 376.952C191.869 375.912 191.589 374.712 191.589 373.352C191.589 371.976 191.869 370.768 192.429 369.728C192.989 368.688 193.773 367.888 194.781 367.328C195.789 366.768 196.949 366.488 198.261 366.488C199.525 366.488 200.653 366.76 201.645 367.304C202.653 367.848 203.429 368.624 203.973 369.632C204.533 370.624 204.813 371.768 204.813 373.064ZM201.333 372.104C201.317 371.24 201.005 370.552 200.397 370.04C199.789 369.512 199.045 369.248 198.165 369.248C197.333 369.248 196.629 369.504 196.053 370.016C195.493 370.512 195.149 371.208 195.021 372.104H201.333ZM225.697 366.704L221.809 380H218.185L215.761 370.712L213.337 380H209.689L205.777 366.704H209.185L211.537 376.832L214.081 366.704H217.633L220.129 376.808L222.481 366.704H225.697ZM236.594 362.24V380H233.234V362.24H236.594ZM245.818 380.216C244.538 380.216 243.386 379.936 242.362 379.376C241.338 378.8 240.53 377.992 239.938 376.952C239.362 375.912 239.074 374.712 239.074 373.352C239.074 371.992 239.37 370.792 239.962 369.752C240.57 368.712 241.394 367.912 242.434 367.352C243.474 366.776 244.634 366.488 245.914 366.488C247.194 366.488 248.354 366.776 249.394 367.352C250.434 367.912 251.25 368.712 251.842 369.752C252.45 370.792 252.754 371.992 252.754 373.352C252.754 374.712 252.442 375.912 251.818 376.952C251.21 377.992 250.378 378.8 249.322 379.376C248.282 379.936 247.114 380.216 245.818 380.216ZM245.818 377.288C246.426 377.288 246.994 377.144 247.522 376.856C248.066 376.552 248.498 376.104 248.818 375.512C249.138 374.92 249.298 374.2 249.298 373.352C249.298 372.088 248.962 371.12 248.29 370.448C247.634 369.76 246.826 369.416 245.866 369.416C244.906 369.416 244.098 369.76 243.442 370.448C242.802 371.12 242.482 372.088 242.482 373.352C242.482 374.616 242.794 375.592 243.418 376.28C244.058 376.952 244.858 377.288 245.818 377.288ZM254.354 373.352C254.354 371.976 254.635 370.776 255.195 369.752C255.755 368.712 256.531 367.912 257.523 367.352C258.515 366.776 259.651 366.488 260.931 366.488C262.579 366.488 263.939 366.904 265.011 367.736C266.099 368.552 266.827 369.704 267.195 371.192H263.571C263.379 370.616 263.051 370.168 262.587 369.848C262.139 369.512 261.579 369.344 260.907 369.344C259.947 369.344 259.187 369.696 258.627 370.4C258.067 371.088 257.787 372.072 257.787 373.352C257.787 374.616 258.067 375.6 258.627 376.304C259.187 376.992 259.947 377.336 260.907 377.336C262.267 377.336 263.155 376.728 263.571 375.512H267.195C266.827 376.952 266.099 378.096 265.011 378.944C263.923 379.792 262.563 380.216 260.931 380.216C259.651 380.216 258.515 379.936 257.523 379.376C256.531 378.8 255.755 378 255.195 376.976C254.635 375.936 254.354 374.728 254.354 373.352ZM268.792 373.304C268.792 371.96 269.056 370.768 269.584 369.728C270.128 368.688 270.856 367.888 271.768 367.328C272.696 366.768 273.728 366.488 274.864 366.488C275.856 366.488 276.72 366.688 277.456 367.088C278.208 367.488 278.808 367.992 279.256 368.6V366.704H282.64V380H279.256V378.056C278.824 378.68 278.224 379.2 277.456 379.616C276.704 380.016 275.832 380.216 274.84 380.216C273.72 380.216 272.696 379.928 271.768 379.352C270.856 378.776 270.128 377.968 269.584 376.928C269.056 375.872 268.792 374.664 268.792 373.304ZM279.256 373.352C279.256 372.536 279.096 371.84 278.776 371.264C278.456 370.672 278.024 370.224 277.48 369.92C276.936 369.6 276.352 369.44 275.728 369.44C275.104 369.44 274.528 369.592 274 369.896C273.472 370.2 273.04 370.648 272.704 371.24C272.384 371.816 272.224 372.504 272.224 373.304C272.224 374.104 272.384 374.808 272.704 375.416C273.04 376.008 273.472 376.464 274 376.784C274.544 377.104 275.12 377.264 275.728 377.264C276.352 377.264 276.936 377.112 277.48 376.808C278.024 376.488 278.456 376.04 278.776 375.464C279.096 374.872 279.256 374.168 279.256 373.352ZM289.834 369.464V375.896C289.834 376.344 289.938 376.672 290.146 376.88C290.37 377.072 290.738 377.168 291.25 377.168H292.81V380H290.698C287.866 380 286.45 378.624 286.45 375.872V369.464H284.866V366.704H286.45V363.416H289.834V366.704H292.81V369.464H289.834ZM296.93 365.12C296.338 365.12 295.842 364.936 295.442 364.568C295.058 364.184 294.866 363.712 294.866 363.152C294.866 362.592 295.058 362.128 295.442 361.76C295.842 361.376 296.338 361.184 296.93 361.184C297.522 361.184 298.01 361.376 298.394 361.76C298.794 362.128 298.994 362.592 298.994 363.152C298.994 363.712 298.794 364.184 298.394 364.568C298.01 364.936 297.522 365.12 296.93 365.12ZM298.586 366.704V380H295.226V366.704H298.586ZM307.81 380.216C306.53 380.216 305.378 379.936 304.354 379.376C303.33 378.8 302.522 377.992 301.93 376.952C301.354 375.912 301.066 374.712 301.066 373.352C301.066 371.992 301.362 370.792 301.954 369.752C302.562 368.712 303.386 367.912 304.426 367.352C305.466 366.776 306.626 366.488 307.906 366.488C309.186 366.488 310.346 366.776 311.386 367.352C312.426 367.912 313.242 368.712 313.834 369.752C314.442 370.792 314.746 371.992 314.746 373.352C314.746 374.712 314.434 375.912 313.81 376.952C313.202 377.992 312.37 378.8 311.314 379.376C310.274 379.936 309.106 380.216 307.81 380.216ZM307.81 377.288C308.418 377.288 308.986 377.144 309.514 376.856C310.058 376.552 310.49 376.104 310.81 375.512C311.13 374.92 311.29 374.2 311.29 373.352C311.29 372.088 310.954 371.12 310.282 370.448C309.626 369.76 308.818 369.416 307.858 369.416C306.898 369.416 306.09 369.76 305.434 370.448C304.794 371.12 304.474 372.088 304.474 373.352C304.474 374.616 304.786 375.592 305.41 376.28C306.05 376.952 306.85 377.288 307.81 377.288ZM324.579 366.512C326.163 366.512 327.443 367.016 328.419 368.024C329.395 369.016 329.883 370.408 329.883 372.2V380H326.523V372.656C326.523 371.6 326.259 370.792 325.731 370.232C325.203 369.656 324.483 369.368 323.571 369.368C322.643 369.368 321.907 369.656 321.363 370.232C320.835 370.792 320.571 371.6 320.571 372.656V380H317.211V366.704H320.571V368.36C321.019 367.784 321.587 367.336 322.275 367.016C322.979 366.68 323.747 366.512 324.579 366.512Z" fill="white"/>
<defs>
<filter id="filter0_b_3_51" x="-31.5" y="-32" width="514" height="639" filterUnits="userSpaceOnUse" color-interpolation-filters="sRGB">
<feFlood flood-opacity="0" result="BackgroundImageFix"/>
<feGaussianBlur in="BackgroundImageFix" stdDeviation="16"/>
<feComposite in2="SourceAlpha" operator="in" result="effect1_backgroundBlur_3_51"/>
<feBlend mode="normal" in="SourceGraphic" in2="effect1_backgroundBlur_3_51" result="shape"/>
</filter>
</defs>
</svg>
